<svg xmlns="http://www.w3.org/2000/svg" width="44.592" height="44.592" viewBox="0 0 44.592 44.592"><defs><style>.a{fill:#eee;fill-rule:evenodd;}</style></defs><path class="a" d="M22.3,3.964a68.365,68.365,0,0,1,8.918.248,11.49,11.49,0,0,1,4.212.743,8.7,8.7,0,0,1,4.212,4.212,11.49,11.49,0,0,1,.743,4.212c0,2.23.248,2.973.248,8.918a68.364,68.364,0,0,1-.248,8.918,11.49,11.49,0,0,1-.743,4.212,8.7,8.7,0,0,1-4.212,4.212,11.49,11.49,0,0,1-4.212.743c-2.23,0-2.973.248-8.918.248a68.364,68.364,0,0,1-8.918-.248,11.49,11.49,0,0,1-4.212-.743,8.7,8.7,0,0,1-4.212-4.212,11.49,11.49,0,0,1-.743-4.212c0-2.23-.248-2.973-.248-8.918a68.365,68.365,0,0,1,.248-8.918,11.49,11.49,0,0,1,.743-4.212A8.9,8.9,0,0,1,6.689,6.689,4.188,4.188,0,0,1,9.166,4.955a11.49,11.49,0,0,1,4.212-.743A68.365,68.365,0,0,1,22.3,3.964M22.3,0A73.2,73.2,0,0,0,13.13.248a15.294,15.294,0,0,0-5.45.991A9.7,9.7,0,0,0,3.716,3.716,9.7,9.7,0,0,0,1.239,7.68a11.288,11.288,0,0,0-.991,5.45A73.2,73.2,0,0,0,0,22.3a73.2,73.2,0,0,0,.248,9.166,15.294,15.294,0,0,0,.991,5.45,9.7,9.7,0,0,0,2.477,3.964A9.7,9.7,0,0,0,7.68,43.354a15.294,15.294,0,0,0,5.45.991,73.2,73.2,0,0,0,9.166.248,73.2,73.2,0,0,0,9.166-.248,15.294,15.294,0,0,0,5.45-.991,10.394,10.394,0,0,0,6.441-6.441,15.294,15.294,0,0,0,.991-5.45c0-2.477.248-3.221.248-9.166a73.2,73.2,0,0,0-.248-9.166,15.294,15.294,0,0,0-.991-5.45,9.7,9.7,0,0,0-2.477-3.964,9.7,9.7,0,0,0-3.964-2.477,15.294,15.294,0,0,0-5.45-.991A73.2,73.2,0,0,0,22.3,0m0,10.9A11.212,11.212,0,0,0,10.9,22.3,11.4,11.4,0,1,0,22.3,10.9m0,18.828A7.3,7.3,0,0,1,14.864,22.3,7.3,7.3,0,0,1,22.3,14.864,7.3,7.3,0,0,1,29.728,22.3,7.3,7.3,0,0,1,22.3,29.728M34.187,7.68A2.725,2.725,0,1,0,36.913,10.4,2.749,2.749,0,0,0,34.187,7.68" transform="translate(0)"/></svg>