<svg xmlns="http://www.w3.org/2000/svg" xmlns:xlink="http://www.w3.org/1999/xlink" width="700" height="700" viewBox="0 0 700 700"><defs><style>.a{clip-path:url(#b);}.b{fill:#fff;stroke:#707070;}.c{fill:#5e90b3;}.d{stroke:none;}.e{fill:none;}</style><clipPath id="b"><rect width="700" height="700"/></clipPath></defs><g id="a" class="a"><g class="b" transform="translate(102 121)"><circle class="d" cx="0.5" cy="0.5" r="0.5"/><circle class="e" cx="0.5" cy="0.5"/></g><g transform="translate(-206.158 -11.846)"><g transform="translate(856.198 268.991)"><path class="c" d="M605.366,367.628l.2.392-1.043-.949-1.387-.461-1.35.007-.4-1.383-1.093-1.044-.519-1.632-.371-1.665,1.946-1.3-.6-1.62-.2-1.543.678-1.482.292-1.531-1.379-1.427-.763-1.494.09-1.911,1.957-1.259-.442-1.567-.57-1.6-.027-1.449,1.331-1.609.014-1.678-1.257-1.265.613-1.515-.6-1.515.4-1.529-1.079-1.481.793-1.569-1.033-1.54,1.745-1.564-1.891-1.44,1.751-1.366-.747-1.706,1.163-1.658-1.1-1.37.808-1.43-.345-1.539-.5-1.642-1.017-1.443,1.065-1.516.531-1.378-1.074-1.709-.218-1.454.736-1.562.985-1.4.246-1.632-1.651-1.369.782-1.725-.205-1.45.415-1.486-.71-1.608.448-1.546-1.072-1.5,1.813-1.493-2.152-1.386.931-1.7-.415-1.5.3-1.506-.146-1.632.85-1.42-.438-1.467-.275-1.558.668-1.624-.264-1.448.144-1.538-.806-1.472-.206-1.6,1.5-1.56-.376-1.507-.607-1.51.653-1.68-.078-1.362.438-1.4-.144-1.7-.525-1.59-.948-1.545.4-1.649,1.629-1.318-.3-1.644-1.138-1.412,1.122-1.449-1.277-1.7,1.9-1.264-1.271-1.641.252-1.442,1.128-.742,1.375.723,1.442-.486,1.557-.592,1.219,1.544,1.522-.618,1.834-.429-.324,1.933-.2,1.378-.263,1.63.312,1.555.388,1.556-1.671,1.288,1.694,1.662-1.1,1.678-.265,1.6,1.782,1.262v1.647l-.515,1.5-.055,1.494.14,1.547-1.171,1.421,0,1.564.921,1.525L610.6,271l-.911,1.379.9,1.654.3,1.5-.135,1.574-.043,1.459.083,1.6.194,1.522-.032,1.433.579,1.606-1.246,1.445.659,1.454.2,1.552.767,1.606-.134,1.63-1.734,1.34.227,1.591.861,1.547-.866,1.49,1.316,1.513-.413,1.464-.864,1.611.782,1.615-.857,1.359-.3,1.608.486,1.5.7,1.516-.531,1.494.8,1.464-.841,1.583-.133,1.556-.046,1.465-.1,1.51.07,1.515.113,1.616-.6,1.575,1.8,1.3-.105,1.8-.886,1.429-.234,1.478.96,1.435.255,1.734-1.227,1.443.68,1.522-.325,1.492-.22,1.624.039,1.477-.649,1.746.967,1.363.937,1.552-1.264,1.463,1.608,1.528-1.555,1.483-.627,1.493-.275,1.67,1.738,1.342.208,1.695-1.138,1.5.943,1.592-2.041,1.427,1.72,1.415-.621,1.658-.664,1.163.367,1.95-1.445,1.386-1.813-.744Z" transform="translate(-599.376 -242.708)"/></g><g transform="translate(223.965 204.252)"><path class="c" d="M757.718,330.552l-1.579-.9-1.524-.68-1.4,1.473-1.574-.054-1.656-.33-1.421-1.661-1.377,2.2-1.522-1.7-1.623.705-1.4,1.1-1.542-.052-1.635-.264-1.7-.231-1.347-1.662-1.5,1.128-1.473-.731-1.7-.284-1.332,1.609-1.495-.495-1.611.65-1.436-.347-1.473-.8-1.6-.278-1.48,1.126-1.522-.32-1.347-.928-1.739-.419-1.412,2.338-1.564-.8-1.545-.7-1.465.209-1.653-.539-1.328.593-1.609.1-1.579-.7-1.286.236-1.613.638-1.524-.045-1.476.03-1.578.224-1.458-.769-1.559.308-1.493.47-1.463.759-1.5-.949-1.645.8-1.428-1.514-1.508-.136-1.527.795-1.648-.6-1.387,1.2-1.527-.461-1.508.3-1.517-1.433-1.507.244L672.9,330.2l-1.55.456-1.369-.293-1.705-1.03-1.3-.077-1.6.793-1.63,1.251-1.258-2.786-1.714,1.519-1.411-.734-1.609.133-1.49.108-1.584.244-1.51-.783-1.459.32-1.492-.375-1.552.224-1.675-.14-1.354,1.148-1.406-1.1-1.675,1.389-1.518-.988-1.507.672-1.523-1.06-1.552.956-1.46-.919-1.478,1.185-1.615.285-1.374-.167-1.591.224-1.6-.594L625.9,329.9l-1.49-.3-1.259.9-1.731-.271-1.577-.611-1.522.813-1.367-1.815-1.6,1.064-1.633-.271-1.439.441-1.441.515-1.551.239-1.62-.441-1.428-1.451-1.535,1-1.5-.742-1.542,1.321-1.448-.244-1.578.771-1.468-1.633-1.359,1.79-1.721-.993-1.4.653-1.577-.53-1.566-.732-1.577,1.126-1.391-1.128-1.764-.611-1.259,1.889-1.55-.445-1.525.044L578.99,329.1l-1.567.761-1.482-.5-1.614.088-1.429.966-1.667.365-1.392-1.062-1.495.66-1.624.013-1.413-1.14-1.451,1.347-1.545-1.51-1.564.535-1.475-.451-1.6.682-1.532-.274-1.369,1.175-1.626.288-1.486-1.3-1.534.276-1.621.719-1.412-.8-1.53-.236-1.5.241-1.51-.454-1.48.592-1.594-.751-1.529.692H536.5l-1.468-1.056-1.636-.141L532,330.183l-1.532.525-1.569-.355-1.311-1.52-1.7.71-1.485.123-1.483.022-1.488-.539-1.546-.009-1.535,1.537-1.444-1.372-1.55.638-1.63-.775-1.391.061-1.534.084-1.458.6-1.443-.79-1.7-.616-1.275,1.7-1.72-.859-1.481,1.46-1.463-1.251-1.534-.311-1.483.7-1.529-.209-1.409-.251-1.63-.653-1.505,1.153-1.392-.529-1.517-.17-1.6.495-1.619-1.1-1.445,2.094L482.1,328.6l-1.65.808-1.32-.027-1.571.035-1.52.678-1.5-.628-1.623-.712-1.375.875-1.6.317-1.66-1.15-1.325,2.14-1.567-1.189L463.94,328.4l-1.577.789-1.429.615-1.619-.035-1.493,1.258-1.5-.978-1.52.059-1.458-1.084-1.616-.059-1.4,1.488-1.6-.444-1.483-.976-1.744-.3-1.135,1.988-1.7-.354-1.49-.811-1.5,1.687-1.69-.943-1.313-1.561-1.658.18-1.581.251-1.17-.022-1.633-.325-1.569.96-1.562-.663-1.466.928-1.517-.582-1.226,0-1.767-.574-1.67.739-1.294-.436-1.628.613-1.355.618-1.63-.554-1.487-.428-1.561.2-1.535.215-1.487.363-1.547-.586-1.347-.8-1.675,1.12-1.532,0-1.573-.363-1.592,1.034-1.5-.266-1.37-.1-1.6.665-1.512-.847-1.51.087-1.577.588-1.481-1.882-1.473.249-1.554.832-1.522-.279-1.537.147-1.468-.162-1.589-.741-1.31,1.55-1.635-.717-1.48-.365-1.579.471-1.537-.061-1.486-.3-1.365.357-1.682.251-1.542.047-1.534-.1-1.436-1.321-1.591.9-1.582-.261-1.37.611-1.641.3-1.722.392L353.127,329l-1.542.248-1.3,1.364-1.714-.359-1.446-1.332-1.571.944-1.648.625-1.6-2.012-1.31,1.911-1.518-2.029-1.35,2.761-1.7-.347-1.527-.269-1.465-1-1.628,1.157-1.431.116-1.481.109-1.589-.993-1.567.486-1.475-.126-1.5-1.17-1.55.6-1.631.569-1.36-.438-1.549.525-1.461-.875-1.621-.591-1.483,1.613-1.443-1.215-1.64.281-1.5-.606-1.485.934-1.505.986-1.549-1.377-1.561.412-1.446-.6-1.6,1.15-1.476-1.044-1.529.187-1.547-.04-1.488.064-1.53.167-1.53-.333-1.562-.131-1.567-.214-1.444.359-1.4-.507-1.645.909-1.552-.736-1.525-.434-1.508.781-1.535,1.182-1.49-1.156-1.483.646-1.551-.047-1.625.569-1.436-1.2-1.515-.694-1.623.355-1.419.918-1.46-.31-1.606-.435-1.552.838-1.556-.537-1.48.278-1.508.377-1.525-.483-1.616.335-1.46-.207-1.476-.36-1.6-.332-1.482.54-1.571.133-1.523.034-1.51-.411-1.529.249-1.554,1.138-1.492-.864-1.63.86-1.5-1.418-1.52.354-1.5-.652-1.441.027-1.008-.885-2.146.04-.781-1.487-.545-1.643.333-1.746.532-1.49,1.029-1.377,2.16.064.786-1.557,1.052-.88,1.173-1.066.424-1.673.995-1.256,1.194-1.028,1.057-1.007,1.364-.8.976-1.19,1.412-.613,1.717-.475.37-1.761,1.586-.473.7-1.525,1.54-.633.884-1.246.31-2,1.757-.192,1.076-1.089.8-1.342,1.226-.98,2.062.022.96-1.436.283-1.705,1.249-.922,1.954-.274.537-1.517.717-1.4,1.263-.833,1.758-.244,1.244-1.384-.726-2.406,2.278.108,1.242-1.015.162-2,1.244-.965,1.909.008.879-1.387,1.187-.983,1.5-.653.5-1.64,1.788-.231.635-1.577.4-1.719,1.372-.906,2-.14.116-1.953,1.4-.779,1.554-.547.308-1.936,1.283-.566,1.566-.941,1.035-.852,1.1-1.217.636-1.5,1.838-.088.566-1.752,1.335-.795.227-2.113,2.284.5.13-1.938.936-1.463,1.921-.148.566-1.71,2.214.05.8-1.525.584-1.241,1.545-.443,1.185-1.266-.221-2.2,1.917-.389,1.732-.323,1.04-1.237.5-1.582,1.688-.433.707-1.492.643-1.493,1.618-.456,1.337-.857,1.821-.709-.64-2.384,1.914-.32.458-1.838,2.168.2.55-1.635,1.542-.621.865-1.46.657-1.325,1.749-.258,1.278-1.091.061-2.01,1.364-1.029,2.34.175.273-1.707,1.682-.027.364-2.168.6-1.441,1.561-.823,1.118-.889,1.439-.616,1.15-1.239.17-1.847,1.4-.963,1.385-.712.742-1.611,2.394.141-.493-2.33,1.579-.956,1.083-.85,1.274-.367,1.451.219,1.587.072,1.522,1.113,1.478-.232,1.333.367,1.68-1.613,1.6,1.212,1.343-1.247,1.463.672,1.564.456,1.529-1.473,1.631,1.481,1.468-.7,1.546.369,1.557.468,1.389-1.151,1.569-.03,1.338,1.794,1.875-.288,1.323-.7L380.313,205l1.591.152,1.527.655,1.454-.433,1.4-.232,1.514-.8,1.544,1.583,1.611.843,1.5-1.089,1.372,1.2,1.725-.586,1.476-.864,1.544-.207,1.431.269,1.424.929,1.606-1.02,1.582.163,1.374.485,1.646,1.116,1.439-1.646,1.476.475,1.763-.653,1.53,1.529,1.379-1.062,1.534-.8,1.424,1.056,1.552-.394,1.48.571,1.588-.072,1.451-1.057,1.754-.044,1.222.872,1.458-1.012,1.685.089,1.438.786,1.517-.049,1.645,1.125,1.389-1.12,1.667-.71,1.32.682,1.529-.116,1.56.651,1.584-.421,1.338.417,1.613-.579,1.4-.485,1.641.03,1.5,1.877,1.481-2.152,1.459,1.589,1.63-.832,1.608,1.088,1.428-1.221,1.4.271,1.628.29,1.508-.429,1.485-.281,1.525.229,1.374,1.325,1.665-.912,1.5-.253,1.586.276,1.439.227,1.411.369,1.643-.922,1.529.372h1.522l1.487-.857,1.576,1.453,1.453-.928,1.507.4,1.53-.5,1.507.017,1.5-.726,1.5.116,1.481,1.3,1.561-.513,1.584.147,1.5-.48,1.39,1.062,1.685-.209,1.443-1.453,1.466,1.64,1.439-1.433,1.69-.17,1.608.34,1.317.645,1.48-.881,1.572,1.557,1.588-.859,1.454-1.039,1.567.7,1.434.16,1.559-.163,1.432.614,1.564.291,1.509-.613,1.483-.5,1.527.547,1.552.14,1.556-.14,1.532-.621,1.49-.091,1.365-.441,1.7,1.029,1.5.459,1.485-.611,1.535-.022,1.574-.1,1.342-.263,1.667.143,1.525-.418,1.487-.343,1.483,1.49,1.591.177,1.478-1.071,1.5,1.017,1.468-1.254,1.567.81,1.51-.131,1.4-1.083,1.621.907,1.227,1.628,1.909-.643,1.306-1.652,1.672.567,1.505-.148,1.522-.19,1.394-.109,1.653.685,1.62-1.276,1.359,2.044,1.527-1.943,1.382,1.667,1.618.054,1.6.236,1.419-.375,1.518-.576,1.461-.217,1.559.81,1.52-.221,1.4.458,1.591-.382,1.517.38,1.53-1.084,1.52,1,1.441-.071,1.493.352,1.581-.672,1.492.992,1.522-.99,1.473.714,1.466-.537,1.614.519,1.382-1.641,1.588.682,1.544-.36,1.436,1.155,1.547-.31,1.5-.017,1.655.69,1.419-.508,1.5-.985,1.487.6,1.484-1.113,1.525,1.636,1.542-.625,1.35.453,1.9-.705,1.3,1.316,1.552.032,1.746-.061,1.311-1.534,1.513.761,1.5-.042,1.48-.783,1.539.655,1.606-.985,1.416.993,1.559-.53,1.523,1.037,1.754.01,1.271-.53,1.493.015,1.549.658,1.561-.049,1.493-.948,1.434,1.428,1.542-.793,1.483.618,1.535.173,1.618-.136,1.365-.236,1.568.4,1.5-1.461,1.513.027,1.446-.847,1.52,1.492,1.751-.887,1.234.465,1.64-.185,1.5.35,1.429.492,1.556-.685,1.557.111,1.515,1.285,1.527-2.226,1.478,1.808,1.288-1.84,1.857-.264,1.451,1.274,1.559.02,1.525-.288,1.488.781,1.507-1.226,1.591.385,1.434.052,1.527-.684,1.589.13,1.382.985,1.628-.534,1.441-.613,1.466.108,1.631.85,1.5-.059,1.493.753,1.741-1.6,1.357,1.167,1.692,1.077,1.455-.821,1.582-1.34,1.426,2.276,1.352-1.912,1.475,1.015,1.66-.2,1.456-1.306,1.485,2.1,1.544-1.14,1.493.758,1.673-.029,1.453-.485,1.471-.126,1.544-.209,1.486-.524,1.564,1.01,1.525-.133,1.485.168,1.495-1.375,1.678.663,1.436,1.476,1.6-.4,1.409-.313,1.535-.8,1.451-.263,1.562-.119,1.557-.015,1.5,0,1.559,1.148,1.517-.7,1.47.081,1.332-.924,1.537,1.505,1.781-.488,1.461.411,1.586-.535,1.446.254,1.562.542,1.445.323,1.668-.064,1.36-1.63,1.6,1.056,1.574-1.167,1.505.349,1.609,1.042,1.377-.431,1.275.936,1.75-.133,1.554-.354L801.644,205l1.645.539,1.577-.05,1.394.2,1.683.886,1.391-.8,1.551-.2,1.588,1,1.4-1.325,1.579-.05,1.508-.173,1.492.682,1.534-.572,1.542.311,1.412,1.3,1.8-.247,1.335-1.364,1.542,1.517,1.514-2.269,1.534,1.542,1.272-1.1,1.749.593,1.422,1.279,1.53-1.6,1.569.059,1.837-.838,1.293,2.5,1.694-.717,1.4-.488,1.582-.03,1.36-.2,1.764,1.428,1.295-1.914,1.594.463,1.4-.623,1.842-.322,1.251,2.33,1.522-2.163,1.589,1.815,1.542-1.3,1.626.079,1.424,1.005,1.546-.02,1.525-.64,1.646-.586,1.422.623,1.522.651,1.537-.352,1.606.742,1.476-1.056,1.529.152,1.79-.463.559,1.951,1.919.173-.138,1.907,1.808,1.108-.87,1.51-.7,1.36-1.267.847.237,2.3-2.623-.88-.318,2.264-.993.956-1.125,1.261-1.062,1.316-1.239.827-1.345.5-.579,1.606-1.247,1.005-1.387.616-.384,1.892-1.672.7-1.771.029-.817,1.389-.919,1.221-.788,1.419-1.093.9-1.616.594-.623,1.825-1.8.044-1.508,1.067.208,2-1.662.443-.173,1.948-1.975.156-.635,1.534-1.264.928-1.827,0-.993,1.367-1.281.949-1.358.933-.151,1.884-1.849.217-1.115.906-.532,1.749-.724,1.377-1.8.365-1.327.786-.913,1.38L836.3,257.1l-.466,1.635-1.556.62-1.825.327-.234,1.928-1.752-.126-1.022,1.555-.411,1.631-1.569.781-1.1.875-.55,1.726-.985,1.32-1.6.532-1.786.367-.455,1.557-1.293.926-1.657.455-.261,1.734-.641,1.554-2.28.027-.828,1.278-.273,2.022-1.359.914-2.313-.419.584,2.515L809.292,284l-1.606.295-1.028,1.077-1.14,1.064-1.827.4-.8,1.325-1.023.976-1.23,1.037-.874,1.256-.1,1.894-1.065,1.323-2.323-.286-.31,1.867-1.751.281-.84,1.385-1.014,1.175-1.916.21-.581,1.527-1.847.217.2,2.542L786.49,304l-.6,1.54-.523,1.891-1.887.1-1.01.995-1.276.914-1.005,1.332-1.323.64-.283,1.6-.864,1.6-1.85.451-1.964-.163-1.2,1.163-.027,2.037-1.591.667-.889,1.311-1.544.66-.283,2-1.429.694-1.2.737-1.449.848-1.039,1.1-.949,1.158-.99,1.3-1.567-.04-1.3.32ZM243.059,319.379l.849.466,1.523.682,1.4-1.475,1.569.054,1.653.332,1.414,1.66,1.374-2.194,1.515,1.694,1.62-.706,1.394-1.094,1.539.052,1.63.263,1.7.231,1.342,1.661,1.495-1.126,1.47.729,1.7.286,1.327-1.609,1.49.493,1.608-.648,1.433.345,1.468.8,1.6.276,1.475-1.126,1.518.32,1.343.928,1.736.421,1.409-2.34,1.561.8,1.542.705,1.461-.21,1.65.54,1.325-.594,1.608-.1,1.577.7,1.283-.237,1.609-.638,1.52.047,1.473-.03,1.577-.224,1.455.768,1.556-.308,1.492-.468,1.461-.759,1.493.949,1.641-.806,1.426,1.515,1.507.135,1.525-.795,1.646.6,1.385-1.2,1.525.461,1.507-.3,1.515,1.433,1.505-.244,1.513-1.183,1.549-.455,1.369.291,1.705,1.03,1.3.079,1.6-.795,1.63-1.251,1.258,2.786,1.712-1.517,1.409.732,1.608-.131,1.488-.109,1.581-.242,1.507.781,1.456-.32,1.486.375,1.549-.222,1.67.14,1.349-1.15,1.4,1.1,1.672-1.391,1.513.99,1.5-.672,1.519,1.061,1.549-.956,1.454.918,1.473-1.183,1.611-.285,1.37.165,1.586-.222,1.6.594,1.433.158,1.486.3,1.254-.9,1.727.271,1.574.609,1.519-.811,1.365,1.815,1.594-1.066,1.631.273,1.436-.443,1.438-.515,1.547-.237,1.618.439,1.426,1.451,1.532-1,1.5.741,1.54-1.322,1.445.246,1.576-.771,1.466,1.631,1.357-1.788,1.719.992,1.4-.652,1.576.53,1.564.732,1.576-1.128,1.39,1.128,1.763.611,1.259-1.889,1.549.444,1.525-.042,1.493,1.146,1.564-.761,1.48.5,1.611-.088,1.426-.966,1.662-.365,1.389,1.062,1.488-.66,1.62-.014,1.407,1.14,1.446-1.347,1.54,1.51,1.561-.535,1.47.451,1.593-.683,1.527.274,1.365-1.173,1.623-.288,1.481,1.3,1.532-.276,1.618-.717,1.407.8,1.528.234,1.5-.241,1.5.454,1.47-.593,1.583.753,1.518-.693h1.448l1.456,1.055,1.624.141,1.384-1.36,1.52-.525,1.564.354,1.31,1.522,1.7-.712,1.483-.121,1.48-.022,1.487.539,1.544.007,1.532-1.537,1.443,1.372,1.547-.638,1.628.774,1.389-.061,1.534-.083,1.456-.6,1.441.788,1.7.616,1.273-1.7,1.72.859,1.483-1.458,1.463,1.251,1.534.31,1.485-.7,1.529.209,1.409.251,1.633.653,1.505-1.153,1.394.529,1.518.17,1.606-.495,1.621,1.1,1.446-2.092,1.5,2.172,1.652-.808,1.323.025,1.571-.034,1.52-.68,1.5.63,1.62.71,1.372-.874,1.594-.317,1.655,1.15,1.317-2.141,1.559,1.19,1.443,1.35,1.571-.788,1.421-.616,1.615.035,1.485-1.258,1.493.98,1.515-.061,1.451,1.086,1.611.057,1.392-1.488,1.6.446,1.48.975,1.741.3,1.131-1.988,1.7.353,1.486.813,1.495-1.689,1.69.944,1.31,1.559,1.658-.18,1.579-.249,1.17.022,1.631.323,1.571-.96,1.562.663,1.466-.927,1.519.582,1.229,0,1.769.574,1.672-.739,1.3.438,1.63-.615,1.357-.616,1.63.554,1.485.426,1.557-.2,1.532-.215,1.481-.364,1.54.588,1.338.8,1.667-1.118,1.527,0,1.564.364,1.588-1.035,1.492.266,1.364.1,1.6-.665,1.508.848,1.507-.088,1.574-.589,1.48,1.882,1.473-.249,1.554-.83,1.52.279,1.539-.148,1.47.163,1.591.741,1.315-1.552,1.635.719,1.482.364,1.577-.47,1.535.061,1.483.3,1.362-.355,1.677-.253,1.534-.047,1.527.1,1.431,1.32,1.584-.9,1.578.261,1.367-.611,1.638-.3,1.72-.394,1.307,1.663,1.542-.249,1.308-1.362,1.716.357,1.444,1.333,1.571-.946,1.647-.624,1.6,2.012,1.306-1.911,1.513,2.03,1.345-2.761,1.692.345,1.522.271,1.461,1,1.626-1.157,1.431-.116,1.483-.11,1.588.993,1.565-.488,1.47.128,1.49,1.168,1.54-.6,1.623-.569,1.347.439,1.537-.527,1.448.875,1.611.591,1.475-1.611,1.438,1.216,1.64-.281,1.5.606,1.49-.936,1.512-.987,1.557,1.379,1.567-.414,1.449.6,1.6-1.151,1.476,1.045,1.527-.187,1.544.04,1.484-.064,1.525-.168,1.527.335,1.564.13,1.567.215,1.445-.359,1.405.507,1.643-.911,1.554.736,1.529.436,1.51-.783,1.534-1.182,1.483,1.156,1.482-.645,1.55.047,1.626-.571,1.438,1.2,1.515.694,1.623-.355,1.411-.916,1.451.308,1.6.436,1.552-.838,1.554.535,1.476-.278,1.51-.375,1.524.483,1.615-.335,1.459.207,1.487.36,1.609.332,1.49-.542,1.544-.126,1.034-1.037,1.358-.721.921-1.215.327-1.879,1.662-.384.572-1.726,2.044.017.835-1.278,1.542-.561.951-1.234,1.315-.741.1-2.167,1.118-.96.983-1.146,1.276-.914.992-.978,1.128-1.1,2.123.1.781-1.552,1.045-.874,1.167-1.061.419-1.667.988-1.251,1.19-1.024,1.05-1,1.359-.8.973-1.187,1.407-.608,1.7-.461.355-1.746,1.571-.459.682-1.51,1.525-.62.87-1.232.3-1.988,1.742-.177L796.1,281.4l.788-1.33,1.212-.968,2.054.03.951-1.429.278-1.7,1.244-.921,1.953-.271.532-1.512.71-1.391,1.258-.827,1.749-.237,1.238-1.379-.736-2.394,2.268.118,1.232-1.008.151-1.988,1.234-.954,1.909.007.88-1.387,1.188-.985,1.5-.656.508-1.643,1.793-.237.64-1.581.406-1.722,1.374-.9,2-.14.113-1.948,1.391-.776,1.547-.542.3-1.929,1.273-.557,1.562-.936,1.032-.849,1.1-1.214.631-1.5,1.837-.084.562-1.751,1.335-.795.229-2.114,2.288.5.13-1.938.933-1.458,1.914-.141.555-1.7,2.205.059.8-1.52.577-1.234,1.544-.441,1.178-1.259-.227-2.194,1.914-.385,1.736-.325,1.039-1.237.505-1.584,1.692-.436.707-1.492.643-1.493,1.613-.451,1.337-.857,1.823-.71-.631-2.392,1.971-.564-1.8.877-1.419-1.636-1.507.81-1.529-.609-1.618.465-1.377.512-1.441-1.017-1.672-.086-1.417,1.416-1.688-.19-1.562-1.734-1.347,1.05-1.219-1.135-1.741,1.323-1.409.631-1.677-.475-1.4-.123-1.444-.542-1.663.108-1.367,1.224-1.66-.264-1.473-.436-1.62.658-1.613-1.747-1.2,2.03-1.734-.382-1.464.069-1.409-.125-1.559-.407-1.567-.071-1.515-1.113-1.47.232-1.327-.365-1.675,1.611-1.591-1.21-1.338,1.246-1.456-.67-1.559-.456-1.524,1.473L804.9,215.2l-1.463.7-1.542-.369-1.552-.47-1.386,1.151-1.566.032-1.335-1.8-1.872.288-1.322.7-1.441,1.109-1.588-.151-1.527-.655-1.451.433-1.4.232-1.512.8-1.546-1.584-1.609-.843-1.5,1.091-1.374-1.2-1.726.586-1.478.864-1.544.209-1.434-.271-1.426-.928-1.608,1.02-1.584-.165-1.375-.485-1.648-1.115-1.441,1.645-1.478-.475-1.762.653-1.532-1.527-1.377,1.061-1.536.8-1.422-1.056-1.552.4-1.48-.572-1.586.072-1.449,1.057-1.752.045-1.221-.872-1.456,1.01-1.683-.089-1.436-.784-1.513.047-1.643-1.125-1.385,1.12-1.663.712-1.317-.682-1.525.115-1.556-.651-1.581.421-1.335-.417-1.608.579-1.4.485-1.638-.03-1.493-1.877-1.475,2.151-1.454-1.589-1.624.832-1.6-1.088-1.419,1.222-1.4-.271-1.623-.291-1.5.431-1.48.279-1.522-.229-1.37-1.323-1.66.911-1.5.253-1.584-.274-1.438-.229-1.409-.369-1.643.923-1.527-.372h-1.522l-1.486.857-1.576-1.453-1.453.927-1.507-.4-1.53.5-1.507-.017-1.5.727-1.5-.116-1.48-1.3-1.561.515-1.582-.148-1.5.48-1.391-1.062-1.683.21-1.439,1.451-1.465-1.64-1.438,1.433-1.688.17-1.606-.34-1.313-.645-1.478.88-1.571-1.557-1.584.859-1.453,1.039-1.564-.7-1.433-.16-1.547.165-1.423-.615-1.552-.293-1.5.613-1.473.5-1.513-.547-1.542-.14-1.542.14-1.52.623-1.475.089-1.352.441-1.682-1.029-1.487-.459-1.471.611-1.52.022-1.564.1-1.327.263-1.656-.143-1.514.417-1.476.343-1.471-1.49-1.582-.177-1.468,1.071-1.488-1.017-1.459,1.254-1.561-.81-1.5.131-1.391,1.083-1.613-.907-1.22-1.628-1.906.643-1.3,1.651-1.668-.567-1.5.148-1.518.19-1.392.109-1.651-.685-1.618,1.276-1.365-2.042-1.534,1.941-1.394-1.667-1.626-.054-1.61-.236-1.429.375-1.525.576-1.469.217-1.566-.81-1.527.222-1.406-.458-1.6.38-1.524-.38-1.534,1.084-1.525-1-1.443.071-1.5-.35-1.583.672-1.493-.993-1.524.99-1.475-.714-1.468.537-1.616-.518-1.38,1.641-1.587-.682-1.544.36L554.11,215.3l-1.546.311-1.5.015-1.651-.69-1.418.508-1.492.985-1.485-.6-1.481,1.113-1.524-1.636-1.537.624-1.347-.451-1.9.7-1.3-1.315-1.549-.034-1.742.062-1.306,1.532-1.512-.761-1.495.042-1.48.783-1.539-.655-1.606.985-1.416-.992-1.559.529-1.524-1.037-1.754-.01-1.271.532-1.491-.017-1.549-.658-1.561.049-1.493.948-1.434-1.428-1.542.795-1.483-.619-1.537-.173-1.618.136-1.365.236-1.569-.4-1.5,1.461-1.515-.029-1.448.847-1.524-1.492-1.754.887-1.237-.463-1.645.184-1.5-.35-1.434-.492-1.559.687-1.561-.113-1.517-1.284-1.529,2.226-1.478-1.806-1.285,1.838-1.855.266-1.448-1.276-1.555-.02-1.52.288-1.481-.781-1.5,1.226-1.588-.385-1.431-.052-1.525.684-1.589-.13-1.384-.983-1.63.534-1.444.611-1.468-.108-1.633-.85-1.5.061-1.5-.754-1.741,1.606-1.358-1.168-1.692-1.077-1.454.821-1.586,1.34-1.426-2.276-1.355,1.914-1.478-1.017-1.661.2-1.458,1.306-1.485-2.1-1.537,1.14-1.487-.758-1.663.029-1.443.485-1.46.126-1.532.21-1.478.523-1.557-1.012-1.518.133-1.48-.168-1.49,1.375-1.677-.662-1.437-1.476-1.608.4-1.412.311-1.537.8-1.449.261-1.56.119-1.554.017-1.492,0-1.554-1.146-1.512.7-1.466-.081-1.332.923-1.54-1.505-1.785.488-1.46-.411-1.587.535-1.446-.254-1.562-.542-1.448-.323-1.673.064-1.362,1.631-1.594-1.057-1.574,1.168-1.507-.35-1.611-1.042-1.379.431-1.283-.936-1.761.133-1.557.354-1.4,1.212L368.894,216l-1.589.05-1.406-.2-1.694-.886-1.4.8-1.562.2-1.594-1-1.4,1.325-1.588.049-1.518.173-1.505-.682-1.332.527-1.137.7-1.909.012-1.133,1.411-.019,1.9-2.153-.051.473,2.678-2.16-.077-.151,1.662-1.663.761-1.9.037V227.6l-1.17,1.027-.751,1.863-2.641-.936-.726,1.675-.66,1.3-1.116,1.1-.833,1.067-2.251.165.4,2.263-1.463.746-.569,1.4-1.1,1.487-2.492-.848.394,2.606-2.392-.234-.216,1.992-1.22,1.047-1.7.224-1.084,1.056-.641,1.487-.769,1.535-1.434.5-1.532.554-.847,1.286-1.651.54-.316,1.754-1.192.919-.643,1.626-2.037-.189-.354,1.948-1.924.347,0,2.135-1.565.433-1.222.923-1.428.694.224,2.323-2.618-.885-.311,2.256-.987.95-1.116,1.254-1.055,1.31-1.232.821-1.337.493-.572,1.6-1.242,1-1.382.611-.38,1.889-1.67.7-1.769.027-.816,1.389-.918,1.217-.783,1.416-1.086.894-1.611.588-.616,1.818-1.791.035-1.5,1.062.216,1.992-1.66.439-.175,1.948-1.971.156-.633,1.53-1.261.926-1.825-.007-.99,1.365-1.283.949-1.359.934-.152,1.884-1.842.209-1.106.9-.522,1.742-.714,1.367-1.806.37-1.335.795-.923,1.39-.791,1.249-.473,1.64-1.561.625-1.838.338-.241,1.934-1.761-.118-1.03,1.564-.417,1.638-1.572.783-1.1.877L246.151,317l-.992,1.325-1.515.463Z" transform="translate(-223.82 -204.252)"/></g><g transform="translate(262.514 364.747)"><path class="c" d="M252.958,443.991l.106.818-1.441-1.314-.924-1.158-2.156.31.376-1.872-1.392-1.237,1.745-1.5-1.617-1.382L246.9,435l.779-1.571.258-1.47.144-1.487-.229-1.532.092-1.522.457-1.55-.2-1.449-.587-1.507.7-1.475-.648-1.518-.646-1.571,1.246-1.436-.093-1.616-1.267-1.491,1.408-1.358-.924-1.529-.029-1.567,1.6-1.43-1.888-1.509,1.6-1.622-.208-1.407.441-1.644-.58-1.559-.1-1.35.175-1.483.216-1.655-1.721-1.389.614-1.674.6-1.345-1.2-1.306.877-1.7.054-1.563-.165-1.534.583-1.461.6-1.619-.626-1.5-1.126-1.416.482-1.506-.014-1.523,1.1-1.559-1.861-1.446,1.15-1.5-.207-1.514.61-1.474-.183-1.465.487-1.55-1.947-1.407,1.29-1.527.342-1.573-1.187-1.411-.154-1.693,1.677-1.428.32-1.649-.919-1.375-.589-1.528.652-1.566-.512-1.5,1.216-1.625-1.782-1.308.511-1.628,1.029-1.374.3-1.657-.405-1.585-.128-1.323-.919-1.526-.086-1.569.985-1.409-.267-1.6.719-1.447-.4-1.532.6-1.714-1.267-1.37.94-1.428.066-1.777-.848-1.336,1.075-1.418-1.63-1.543-.121-1.6,1.477-1.4-.063-1.563-.288-1.629-1.519-1.43,2.212-1.431-1.4-1.665,1.363-1.51-1.831-1.4.242-1.616.229-1.531-.035-1.78,1.631.794,1.482-.23,1.351-1.249,1.541,1.435,1.5-.753,1.356.325,1.871-.41-.057,1.834-.633,1.429-.816,1.638.67,1.586-.441,1.341.451,1.477.054,1.568.655,1.427.242,1.634-.91,1.488-.483,1.524-.513,1.772,2.309,1.177-.767,1.541.926,1.47-1.158,1.593.332,1.446.328,1.341-.462,1.732-.129,1.425.532,1.645.132,1.492-.782,1.421.771,1.525-.906,1.519.7,1.464-1.375,1.579,1.338,1.53.03,1.345.564,1.626-1.925,1.52.449,1.515-.24,1.4,1.087,1.62-.226,1.411.531,1.546-.619,1.582-.57,1.428.237,1.543.985,1.42-1.61,1.546-.238,1.574,1.432,1.449-.185,1.544-.453,1.571,1.157,1.431.2,1.481-1.592,1.371,1.423,1.641-1.287,1.458.794,1.6-.624,1.623.556,1.353-1.565,1.481.966,1.774,1.756,1.332-.386,1.595-.983,1.4-1.193,1.386.268,1.725,1.743,1.3-.375,1.668-.612,1.464-1.294,1.571.617,1.589-.311,1.526,2.358,1.444-.95,1.51-.69,1.47.489,1.51-.589,1.637,1.494,1.329-.36,1.537-.8,1.551-.173,1.352.787,1.7-.159,1.5.224,1.647-1.367,1.354.255,1.735,1.69,1.2-1.349,1.628.732,1.576-1.093,1.411.375,1.61-.046,1.477-.489,1.618.91,1.385-1.554,1.537,2.247,1.477-1.848,1.632.58,1.7.609,1.375-1.549.694-.626,1.84-1.654-.351Z" transform="translate(-246.719 -299.589)"/></g><g transform="translate(726.737 364.315)"><path class="c" d="M528.708,444.279l.077-.281-1.41-.33-1.223-.683-.471-1.269-1.692-.534,0-1.494-.482-1.435.357-1.559-.3-1.591-.071-1.434.392-1.53-1.342-1.46,1.806-1.464-1.785-1.643.638-1.5.658-1.473-1.142-1.711,2.014-1.3-1.156-1.488.81-1.445.476-1.534-.3-1.724-1.744-1.279.35-1.714,1.149-1.366-1.428-1.267-.068-1.764,1.089-1.508-1.359-1.62,2.036-1.318-.821-1.586-.894-1.512,1.531-1.4.33-1.663-2.065-1.305,1.583-1.605.181-1.588-1.958-1.5.749-1.628.53-1.406.122-1.492.453-1.564.279-1.4-.674-1.5-.9-1.557,1.893-1.488-.649-1.525.494-1.575-.91-1.4.68-1.472-.027-1.76-1.17-1.3.255-1.494.2-1.615-.727-1.382.588-1.464.329-1.569-.358-1.494-.843-1.419.176-1.656.874-1.429.164-1.561.274-1.444-.4-1.577.609-1.515-.184-1.422-.027-1.573-.476-1.516-.1-1.517-.414-1.507L523,341.54l1.574-1.42-1.005-1.5-.406-1.6-.079-1.406.22-1.57.837-1.48-1.032-1.39,1.235-1.769L523.559,328l-.938-1.421.109-1.668.961-1.462-.523-1.511,1.167-1.5-1.342-1.554.986-1.459.524-1.682-.9-1.319-.235-1.59.246-1.436.234-1.65-.5-1.47.382-1.483.615-1.386-.576-1.634.087-1.577.079-1.265,1.138-.539,1.535.95,1.441-.327,1.3-1.68,1.577,1.257,1.362-1.112,1.808.894-.44,1.77.538,1.641.125,1.33.6,1.6-1.447,1.478.218,1.568-.235,1.505.128,1.511-.035,1.532,1.139,1.419-1.064,1.487-.548,1.407-.494,1.73.216,1.7,2.158,1.247-1.432,1.477.6,1.538-.24,1.5.342,1.587-1.114,1.393,1.349,1.566-1.5,1.541.536,1.441.829,1.592-.259,1.4.816,1.572-2.067,1.514,1.722,1.594-1.613,1.406.47,1.721.932,1.369.543,1.668-.668,1.293-.335,1.48-.823,1.474,1.413,1.489-.134,1.456.281,1.615-.069,1.658-.69,1.38.11,1.5-.277,1.557.874,1.567-1.016,1.431,1.169,1.557-.182,1.537-.723,1.386-.772,1.742,1.249,1.289.131,1.538-1.27,1.573.544,1.227-1.064,1.5,1.119,1.717.1,1.513-.313,1.44.916,1.665-.047,1.212-.608,1.64-.129,1.566.083,1.625.24,1.388-1.129,1.47.233,1.721.3,1.327-.186,1.534-.069,1.534.823,1.511.263,1.518-1.582,1.5.374,1.672,1.742,1.353-.224,1.521.169,1.524-.326,1.482-.241,1.542-1.393,1.329,1.147,1.624.318,1.548-.089,1.511.463,1.68-1.7,1.357.424,1.539.355,1.548.875,1.535-1,1.438.382,1.576.254,1.479-1.1,1.44.91,1.642-.823,1.542.889,1.506.083,1.741-2.027.242-.037,2.276-1.83-.145Z" transform="translate(-522.474 -299.332)"/></g><g transform="translate(223.608 246.24)"><path class="c" d="M766.1,349.422l-1.527-.526-1.451-1.182-1.544,1.138-1.4.123-1.762-.56-1.387.512-1.518-.536-1.3.891-1.709-.5-1.453-.76-1.564.54L748,348.423l-1.564.052-1.49.806-1.514-1.019-1.509.322-1.618.677-1.393-1.545-1.4,1.1-1.595.807-1.668-.585-1.447-1.164-1.51.6-1.359-.7-1.555,1.841-1.583-1.3-1.487.885L723.77,348l-1.47,1-1.572.281-1.444-.812-1.538.288-1.6-1.22-1.367,2.049-1.548-.511-1.429.19-1.714.4-1.428-1.058-1.46-.258-1.546-.548-1.476.965-1.5-.7-1.574.6-1.387-.123-1.6.507-1.491,0-1.456.084-1.535-.678-1.507.111-1.6-.561-1.434,1.49L687.6,348.43l-1.541.057-1.489.346-1.681.693-1.3-.923-1.561.071-1.346-.5-1.672.337-1.44.841-1.624-1.781-1.523.507-1.415-.167-1.47.411L668,347.974l-1.522.661-1.479-.9-1.385,1.472-1.685-.441-1.5.045-1.386-.531-1.666.786-1.383.736-1.6-1.8-1.505,1.181-1.542-.315-1.5.316-1.536-.859-1.5.4-1.489-.673-1.55,1.474-1.447-1.583L640.7,349.01l-1.542-1.415-1.423,1.156-1.456.612-1.564-1.175-1.652,1.295-1.353-1.326-1.443,1.023-1.618.155-1.618-.033-1.393-.882-1.547.053-1.461-.589-1.48,1.344-1.6.107-1.4-1.972-1.528,1.953-1.552-.9-1.49.211-1.574.24-1.5-.521-1.573,1.236-1.384-1.641-1.631-.194-1.464.372-1.521-.135-1.452,1.116-1.51-.6-1.5.218-1.6.706-1.43-.773-1.525-.2-1.5.686-1.6.1-1.519-.227-1.4-1.08-1.515,1.345-1.519-.948-1.646-.606-1.424.6-1.563,1.02-1.445-.759-1.59-1.044-1.4,1.1-1.528.887-1.554-.765-1.426-1.3-1.6.514-1.495,1.068-1.514-1.282-1.362,1.647-1.519-1.1-1.665.273-1.465.058-1.481.628-1.544-.433-1.467-1.251-1.571,1.138-1.368.38-1.663-.783-1.535.42-1.49.15-1.55-.147-1.471-1.418-1.5.816-1.505-.738-1.488,1.154-1.544.377-1.574,0-1.548-1.208-1.437,1.718-1.468-.55-1.532.523-1.382-2.027-1.7.277-1.436,1.2-1.516-.762-1.456.849-1.658-.654-1.4.3-1.542.572-1.583.425-1.393-1.039-1.408.182-1.6.133-1.491-.514-1.5.675-1.553.67-1.489-.629-1.493-.425-1.448.041-1.566-.036-1.453-.372-1.544,1.114-1.4-.976-1.6-.62-1.462,1.582-1.635-.475-1.414-.275-1.325.693-1.656.512L488.3,348.35l-1.444.053-1.548-.17-1.54-.387-1.508,1.354-1.581-1.373-1.4,1.8-1.649-.419-1.387-1.259-1.568-.112-1.448,1.172-1.684.4-1.4-.309-1.539-.8-1.459-.05-1.5-.276-1.475.951-1.616.79-1.525-1.22-1.527-.753-1.533-.057-1.465.627-1.51.337-1.555.871-1.424-1.379-1.635-.372-1.314.319-1.547.841-1.446.7-1.663.007-1.524-.412-1.3-1.4-1.667,1.129-1.523-.193-1.505-.608-1.6-.1-1.574,1.335-1.357-1.333-1.608-.246-1.4.955-1.532-.112-1.388-.231-1.687.272-1.375.154-1.6-.333-1.389-.394-1.594.735-1.5-.54-1.463-.674-1.772.049-1.2,2.068-1.664-.227-1.38-1.445-1.544-.484-1.571.072-1.627.155-1.348,2.083-1.639-.525-1.556-1.383-1.409-.069-1.557.8-1.412-.495-1.574-.376-1.473,1.148-1.55-.76-1.433-.571-1.711-.3-1.4,1.635-1.553-.426-1.592-.043-1.437.532-1.45-.807-1.564.917-1.543-.109-1.409-1.211-1.686,0-1.5.816-1.535.823-1.324-1.417-1.621.3-1.552,1.006-1.516-1.908-1.449,1.749-1.553-.875-1.51.393-1.565-.554-1.444.939-1.537-.229-1.536-.844-1.538.759-1.473-.717-1.492.745-1.6-.182-1.417.149-1.551-.23-1.478-.521-1.556.666-1.536-.2-1.5.568-1.59-.024-1.5-.342-1.606-1.136-1.362.276-1.582,1.165-1.467-.467-1.487.884-1.549-1.144-1.555.726-1.462-1.049-1.493,1.295-1.576-.89-1.517.021-1.508.154-1.528-.01-1.429-.5L314.1,348l-1.375.121-1.58.85-1.417,1.006-1.644-1.169-1.476-.514-1.533-.4-1.454.763-1.484,1.019-1.592-.142-1.509-.3-1.4-.932-1.778.622-1.179.142-1.591.581-1.543-1.934-1.547.214-1.561.575-1.5.888-1.716-.03-1.326-1.8-1.47,1.152-1.6.116-1.623-.048-1.3-.11-1.609-.475-1.538-.011-1.514.518L271.7,348.5l-1.412.559-1.75-1.022-1.277.069-1.686.564-1.5.118-1.518-.917-1.513.377-1.515-.121-1.5.461-1.515.367-1.572.68-1.516-.908-1.51.2-1.54.295-1.52-.468-1.62.936-1.4-1.812-1.533.971-1.572-1.128-1.417,1.525-1.726.5-1.275-2.11-1.647.729-1.494.243-1.372.847-1.69-.622-1.378-1.156-1.738.4-1.783,1.123-.72-2.114-1.845-.328.524-1.96-.632-1.244-.931-1.806.97-1.318,1.165-1.344,1.647-.83,1.549.162,1.569.738,1.678-1.294,1.394.38,1.461.6,1.547-.555,1.363,1.318,1.79-.288,1.372-.872,1.638-.484,1.424.874,1.569-1.142,1.506,2,1.277-2.186,1.7,1.023,1.471.392,1.474-.345,1.58.038,1.531.173,1.508-.527,1.489-.041,1.5,1.065,1.559-1.081,1.509.181,1.4-.568,1.591-.15,1.611.181,1.578,0,1.333.671,1.62.346,1.375-1.008,1.572.407,1.506,1.072,1.561-.85,1.514-1.127,1.53.686L283.5,339.6l1.52-1.1,1.49.721,1.56-.639,1.408-.047,1.611-.384,1.49.682,1.486-.255,1.477-.668,1.354,1.2,1.634.449,1.576-1.05,1.474.614,1.578-.933,1.592,1.4,1.4-1.156,1.429-.381,1.709.815,1.387-1.194,1.527.372,1.415,1.315,1.718-.045,1.379-.67,1.687-.537,1.369,1.252,1.353-1.065,1.662-.65L324.5,338l1.27.067,1.56,1.07,1.578.12,1.446-1.161,1.432,1.156,1.635-.291,1.491-1.043,1.552.043,1.431.182,1.424,1.23,1.638-.528,1.514-1.164,1.489,1.409,1.514-.417,1.719.4,1.279-.467,1.648-.055,1.583.6,1.453-1.635,1.412,1.8,1.573-.14,1.369.525,1.633-1.68,1.453-.081,1.659,1.119,1.432-1.321,1.52.934,1.473.314,1.526-.812,1.6.276,1.51-.711,1.633-.245,1.328,1.623,1.7.18,1.3-.554,1.593-.145,1.508-.667,1.46.922,1.527.087,1.508.041,1.545.02,1.551-.021,1.312.465,1.764-.1,1.264-1.954,1.638.94,1.487.379,1.611.6,1.452-1.344,1.356,1.188,1.687-.4,1.5-.54,1.591,1.282,1.432-.816,1.463.731,1.564-.557,1.59.671,1.346-1.783,1.61.813,1.5-.849,1.509,1.091,1.5.074,1.535.176,1.514-.519,1.612.731,1.442-.332,1.524-.174,1.5.966,1.529-.75,1.411-.413,1.573-1.028,1.529,1.358,1.445-.879,1.6-.138,1.534.662,1.592-1.039,1.442,1.247,1.5-.048,1.534.036,1.547-.353,1.571,1.015,1.377-1.84,1.564.713,1.61.922,1.331-1.811,1.612,1.355,1.327.136,1.664.425,1.57-.7,1.482-.319,1.478.869,1.593-.925,1.439.63,1.4-.457,1.5-.907,1.612,1.2,1.6.374,1.413-.4,1.463-.046,1.57.268,1.5-.349,1.445,1.151,1.619-.545,1.418-.792,1.542.287,1.547.079,1.475.179,1.417-.454,1.676.611,1.456-1.293,1.625,1.367,1.375-1.257,1.624.222,1.482.119,1.417,1.506,1.708-.107,1.313-2.4,1.644,1.076,1.326-.4,1.525,1.286,1.575.5,1.572-.685,1.381-.476,1.572.216,1.513.406,1.534-.253,1.409.114,1.568-.19,1.352-.836,1.75.965,1.4-.214,1.6-.492,1.449-.349,1.553.54,1.529-.058,1.533.094,1.491.1,1.543-.369,1.491.5,1.59-.666,1.519,1.3,1.412-1.738,1.507,1.993,1.41-2.073,1.766.208,1.4,1.364,1.593.2,1.429-.407,1.519.192,1.523-.224,1.531.6,1.463-.509,1.526.517,1.673-.073,1.347-1.584,1.53.673,1.535.514,1.677-1.11,1.31.972,1.43-1.386,1.681.764,1.445.853,1.524-.394,1.435-.6,1.629.617,1.335.111,1.818-.712,1.163-.056,1.664.169,1.542.309,1.447.6,1.563-.278,1.565.228,1.558-1.414,1.527.771,1.432,0,1.6-.316,1.523,1.731,1.516-.829,1.439-.857,1.565-.527,1.5.8,1.521.174,1.566.893,1.457-1.206,1.54.395,1.459.486,1.562.355,1.55-.516,1.447.611,1.348-2.026,1.713-.142,1.524.709,1.527-.037,1.67.106,1.391,1.455,1.441-1.424,1.708,1.208,1.331-1.525,1.329,1.2,1.663.684,1.552-1.934,1.574.746,1.472-.887,1.511,1.353,1.62-.446,1.424-.183,1.536.037,1.483-.457,1.538.919,1.554-.725,1.553.523,1.492.672,1.522-1.3,1.3,1.476,1.722-1.129,1.5-.083,1.637-.591,1.5.514,1.64.91,1.309-1.842,1.37,1.9,1.713-.027,1.5-.912,1.474.547,1.546.818,1.509-1.553,1.526.465,1.582-.585,1.5.272,1.529-.071,1.544-.365,1.563.084,1.442.139,1.617.618,1.439-.387,1.516.436,1.617-1.019,1.428,1.606,1.518-.366,1.493.1,1.661.452,1.162-2.071,1.879-.164,1.535.809,1.351.332,1.5,1.422,1.551-1.034,1.575-1.675,1.44,2.287,1.516-1.656,1.531,1.122,1.515.485,1.536-.39,1.6.089,1.281-1.724,1.718.306,1.473,1.055,1.428-1.086,1.619.546,1.659-.125,1.361,1.182,1.566-.261,1.51.245,1.514-.729,1.607.343,1.44.278,1.608.322,1.481-.713,1.418.3,1.659-.557,1.464,1.234,1.529.114,1.553-1.121,1.336-.531,1.7-.238,1.5,1.067,1.61.09,1.507-.017,1.389.1,1.709-.68,1.488.853,1.44-1.033,1.649.439,1.449-.521,1.521.871,1.5-.5,1.492-.7,1.631,1.317,1.748.088,1.594-.877.563-1.788.969-1.1,1.312-.953,1.067-.981.1-2.151,1.989-.06.5-1.8,1.731-.191,1.421-1.005.422-1.559,1.815-.172-.132-2.054.859-1.479,1.629-.678,1.812,0,.72-1.77,1.75-.32.521-1.578,1.571-.485,1.407-.7.536-1.758,1.061-1.083,1.184-.873,1.173-.99,1.312-.9.977-1.116.716-1.463,1.559-.733.482-1.5.783-1.363,1.2-.923,1.793-.195,1.121-1.112.134-1.819,1.276-1.146,1.5-.817.993-.666,1.265-1.027.542-1.512,1.744-.494,1.2-.837.323-2.088,1.657-.434,1.7-.191,1.495-.648-.154-2.245,2.012-.35.6-1.413,1.2-.981,1.826-.448.53-1.553.3-1.846,1.335-.958,1.967.123-.045-1.979,1.016-1.285,1.666-.533.581-1.787,1.862-.037,1.352-.856.853-1.208,1.027-1.131.727-1.507.817-1.129,1.413-.907,1.759-.26.8-1.394,1.058-1.066,1.62-.727.7-1.326,1.2-.813.962-1.177,1.083-1.161,1.047-1.116.811-1.32,1.021-1.139.964-1.321,2,.066.8-1.4,1.013-1.239,1.4-.691,1.145-1.164.472-1.627,1.758-.211.417-1.637,1.655-.63.876-1.214,2-.171-.1-2.226,1.626-.556.378-1.847,1.109-1.066,1.388-.778,1.7-.341,1.7-.577-.312-2.234,1.865-.433.46-1.674,2.007-.308.957-.969.252-2.246,1.553-.442,1.113-1.05,1.547-.606,1.422-.578,1.429,1.292,1.811-.909,1.342,1.178.937,1.173L887,233.695l.663,1.545-1.054,1.3-.548,1.578-1.618.469-.435,1.743-1.174,1.11-.984,1.188-2.086-.073-.348,1.74-1.915-.057-.968,1.459-.459,1.644-1.158,1.032-1.933.234-1.045,1.235-.148,1.85-1.931.123-.84,1.506-.233,1.824-1.732.24-1.655.648.169,2.222-2.076.076-.366,1.936-1.986.08-.83,1.322-1.363.59-.953,1.319-1.424.792-.131,1.981-1.849.288-.967,1.247-1.243.878-.61,1.515-1.175.949-.991,1.322-1.283.748-2.085.222-.11,1.836-1.337.625-1.075,1.156-1.382.973-.752,1.087-.872,1.477-.871,1.1-1.12,1-1.934.107-1.326.852-.244,1.963-.892,1.288-1.26.975-1.108,1.1-1.271.811-.9,1.177-1.244.943-1.489.633-1.218,1.039-.856,1.228-.7,1.552-1.739.2-.714,1.494L821,299.467l-1.952.3.151,2.176-1.243.961-.947,1.225-1.516.64L813.7,305l-.8,1.38-.8,1.393-1.518.594-.647,1.533-1.924.147-.641,1.564-1.36.755-.368,1.875-2.366-.235.458,2.351-2,.408-.765,1.427-1.441.619-1.563.544-.223,1.9-1.08,1.178-1.3.813-.631,1.691-1.868.277-1.523.55-.3,1.865-2,.186-.657,1.469-.556,1.609-1.089,1-.895,1.286-1.644.508-1.511.677-.165,1.932-1.3.916-1.51.416-1.215,1.192-1.634.675-.484,1.553-.956,1.36-1.8.2-.927,1.348-1.207.735-1.219.774-.861,1.651-1.637.052.2,2.42Z" transform="translate(-223.608 -229.194)"/></g><g transform="translate(322.005 390.504)"><path class="c" d="M336.334,319.454l-.208-2.247-2.668-.47-.958-.051-1.769-1.139-1.582.69-1.84-1.2-1.865,1.728-.627.031-1.564-.741-1.55.286-1.876-.791-1.693,1.259-.579-.041-2.024-1.383-1.449,1.014-1.513-1.049-1.591,1.207-1.164-.592-1.845.528-.673-.044-1.947-1.557-2.17,1.517-.934,0-1.37-.047-1.185-.171-2.2-1.047-1.4.921-.884-.439-2-.02-1.582.222-1.276-.028-1.664-.214-1.443.455-2.047-.615-2.214,2.2-.453,2.252.152,1.138-.628,2.007,1.543,1.649,2.191,1.57,1.145-.5,1.568,1.448,2.422-1.154.808-.209.9.342,2.163,1.258,2.034-1.014.94-.13,1.455.225,2.717-.371,1.637,1.054,2.222-1.065,1.036-.4,1.08.2,1.565.059,1.678.431,1.626-.36,1.365.161,1.543-.126.963-.174,1.768,1.647,2.218-1.656.773.025,1.854.526,1.567-.717,1.114.042,1.614.262,1.578-.288.79.039,1.984,1.848,2.972-2.017.615-1.516.608-.661,1.482-2.448Z" transform="translate(-282.057 -314.884)"/><path class="c" d="M306.078,400.521l1.3-1.717-1.167-1.741.493-1.2-.483-2-.054-.779,1.045-2.03-1.257-1.7.407-1.177-.495-1.843-.148-.843,1.106-1.532-.626-2.215-.054-1.458-.757-.515.761-1.453.943-2.6-1-1.96-.265-.995.221-1.749-.573-1.087.889-1.238-.294-1.651.82-1.713-.876-1.945-.016-.822.872-1.889-.863-1.782.093-.8.669-1.751-.373-2.027-.633-1.519.26-2.787-.206-1.241.486-1.057.912-2.458-1.207-1.592.342-1.478-.665-1.218.53-.822.63-2.67-.832-1.019.963-1.09-.647-2.267-.123-2.614.33-1.59-.354-3.267-2.309-.049-.309-.63-2.162-1.915-3.245,1.294-.249,1.465-1.211.314-.838,2.576.17,1.414-.971,1.785,1.125,1.752-.482,1.205.433,1.871-.029,1.529.475,1.287-.47,1.271-.008,1.821,0,1.912.391.792-1.808,1.678,1.434,1.861-.473.825-.261,2.677.95,1.131-.526,1.085.414,1.764-.331.968-.483,2.274.688,1.565-.2,1.174-.265,3.2.035,1.409-.091,1.943.535,1-.865,1.154.474,2.487.341,1.35-.011,1.4.064,1.424-.091,1.506.069,1.358-.47,1.595.349,1.5-.407,2.088.823,1.064.086.155-.234.845-.192,1.808-.5,1.771.452,1.557-.266,1.483.307,1.636,0,1.21-.111,1.1-1.3,2.523,1.851,1.707-.085.914.114,1.052-.619.868-.978,2.663.975,2.293.511,1.006-.1.865-.988,2.1,1.267,1.621.317,2.109,4,.949,2.526-.073,1.017-2.073.855-1.162.167-1.111.96-1.473.24-2.206-.423-1.8-.552-1.1.762-1.159-.152-2.109-.255-1.31.648-1.713Z" transform="translate(-273.461 -309.326)"/><path class="c" d="M366.1,416.686l.091-1.513-.577-1.739-.894-1.547-.224-.677,1.1-2.338-1.839-1.427.172-1.332-.861-1.07.52-1.268-.466-2.182-.571-1.9-.953-.847.547-2.64-.5-1.726-.014-2.216-1.533-1.221-.106-.633.332-2.208-.921-.883,1.147-1.682-2.034-1.861-.159-.95-.367-1.329.195-1.606-.564-1.547-.007-1.7-1.075-2.537.7-2.183-2.094-1.516-.075-.243,1.558-2.124-1.956-1.841-.039-.756.04-1.586-.18-2.147-.7-1.057.274-1.575-1.2-1.812-.314-.8.635-2.446-1.71-.9.742-2.836-1.419-1.983-.593-.617.7-1.32-1.078-2.142-.385-1.088-.092-1.547-.491-1.1.611-2.081-1.455-1.573-.12-.6.7-2.024-1.308-1.693-.206-1.435-.75-.981.472-1.539-1.2-1.873-.318-1.323-.753-1.147.127-1.521-.455-1.075,1.107-1.922-1.876-2.321-1.789-1.835-3.687.8-2.855.293-.746,2.859-.173,1.619-.575,1.669.238,1.363-.637,1.161-.31,1.682-.606,1.882.507,1.4-.434.691-.763,1.565-.524,3.344-.556,1.721.2,1.511-.314.852-1.082,1.161-.642,1.719-.353,2.152.176,1.1-.965,1.254.4,3.327-.7,1.218-.224,1.693-.319,1.2-.6,1.268-.3,1.609-.858,1.294-.522,2.157.231,1.294-.812,1.639.7,1.813-.131.674-1.128,1.559.193,1.534-1.237,1.508.575,1.387-1.339.937.464,2.361-.38,1.662.27,1.425-1.038,2.727.215,1.661-.11.672-1.332,1.044-.519,2.165-.175,1.312-1.254,2,.861,1.516-.823.993.523,1.97-.306.677-1.241,1.58-.1,2.379.567.526v0l-.009.266-1.06,1.065-.348,2.113-.369,3.125.12,1.381-.575,1.256.04,1.48-.532.825-1.406,1.812.323,2.124-.14,1-.4,1.24-1.032,2.436,1.948,1.808,1.454,1.011,1.488.873,2.87.194,2.6-1.08,1.436-2.9-.714-1.785.333-.842.172-1.391,1.438-1.258.063-1.909.7-1.546-.36-3.426.179-1.067.61-1.2.784-3.262.62-1.632-.011-3.117,1.006-2.852.28-1.271.612-1.052.519-2,.139-1.993-.123-1.4.244-.953,1.093-1.539-.074-2.266-.081-.972,1.005-1.514-.3-1.282,1.658-1.292-.978-2.509.047-.483,1.716-1.355-.482-2.339.3-1.325-.035-1.632.053-1.01.892-1.069.922-2.356-.667-1.614.51-.952.126-1.223,1.424-1.279-.029-1.925.983-1.7-.863-1.922.653-2.474.127-1.327.972-1.279.192-1.879.134-.546.752.85-.08.806-.682,2.658,1.738,1.529.232.692-.115,1.516.388,1.726.6,1.649.641,1.123-.253,1.422.735,2.361,1.193,1.018.187,2.385-.217,1.669.454,2.048.591.715-1.333,2.073,1.882,1.565-.342,1.558,1.21,1.18-.37,1.158.408,1.774.061,1.951,1.047,1.256.063,1.825.863.86-.727,1.519,1.115,1.371L348,389.6l2.54,1.323,0,.723.809,4.436-.533,2.137,1.043,1.414-.137,1.394.756,1.47-.067,1.136.134,2.094.713,1.125-.658,2.119,1.987,1.71.26.434-.673,1.532,1.659,3.584.62,1.159.255,1.052-.1,1.555.428,2.034,2.087,2,1.205-.327,1.612,2.866,2.91-3.665.345-.993,1.485-1.172.1-2.657Z" transform="translate(-261.786 -314.436)"/><path class="c" d="M360.872,354.649l.274-3.038.557-1.2.524-2.834-1.028-1.21.427-1.054-.454-2.048-.565-1.542-.123-.7,1.4-1.956-1.21-1.547.284-.472.794-2.667-.719-1.353.874-1.963-1.047-.945,1.5-1.222-1.59-2.019.532-.837.1-2.17-.249-1.167.9-1.909-1.673-2.818-1.5-.293-.36-.748-2.185-1.8-2.762,1.07-1,1.414-1.579,1.616.446,1.792-.258.76-1.129,1.721.124,2.159.436,1.787.215,1.388.475,1.557.019.921-.913,1.723.716,2.078.284,1.245-.044,1.463.02,1.383.139,1.011-2.02,2.109,1.634,1.6-.634.832.311,2.657.723,1.121-.256.72-.408,1.984-.256,2.02.52,1.1-.614,1.039-.123,2.065.116,1.49-.038,1.458-.345,2.468,1.807,1.294-.054.416-1.1,1.695.427,1.748-.485,1.475.358,1.729.02,1.2-.432,1.6.339,1.517-.608,1.529.579,1.827v1.4l.115,1.613.169,1.33-.48,2.563-.473,1.818.268,1.915.462,1.376-.446,2.926.413,1.6-.156,1.445.521,1.68-.007,1.3.051,1.616.079.725-1.872,1.756,1.782,3.727-.023.848-.744,1.71.276,1.279-1.328,1.838,1.267,2.252.174.871-.16,1.524.123,1.457.03,2.446,1.779.833,1.021,1.761,2.644-.21,1.048-.654,1.673.056,2.028-2.124-.007-1.993.276-2-.745-1.458.246-1.187-.257-1.353.751-1.59-.681-2.293-.334-.833.437-.8.88-2.224-.536-1.874-.029-.963.836-2.052-1.144-1.805-.008-.656.8-1.844-.69-1.634.366-1.208-.086-1.544.337-1.23.118-3.824-.682-1.609-.092-.838.6-1.343.039-2.39-.792-1.386.552-2.777-.317-1.376.532-1.467-.362-1.828.079-1.282-.1-1.756-.132-1.188.376-1.327-.05-1.961-.209-2.783.42-1.945-1.076-1.652-.08-1.036.092-1.315Z" transform="translate(-235.961 -314.713)"/><path class="c" d="M393.989,386.866l-.015-1.116-.836-2.136-1.122-1.166-1.337-2.323-.257-1.167-.805-1.573-.5-2.116-2.2-1.018L385.9,373.5l-1.132-.5-.4-1.707-1.466-.857.69.019,2.2-1.739.35-1.434,1.614-.508.662-2.045,1-1.065.405-1.317,1.79-1.027-.071-1.734,1.463-.893.264-2.047.851-1.6-.293-1.3,1.234-.9-.012-2.683-.163-1.654-.119-.709,2.112-2.088-1.866-1.772.7-1.448-1.222-1.554.462-1.335-.874-2.094-.631-1.261-.687-1.059.191-1.524-.945-2.228-1.118-1.006-.593-1.5-1.324-.988-.593-1.618-1.279-.6-.327-1.994-2.225-.871-.809-.648-1.237-1.384-1.468-.416-1.249-2.1-1.725.546-.482-1.092L375.277,317l-1.841-.137-1.193-.314-2.092-.789-1.686.783-1.281-.342-1.233.248-2.469-1.526-1.618,2.951-.413,1.177-2.2,1.932,1.868,2.1.337,2.511,2.625-.084,2.86,1.474,1.837-.5,1.139.11.958.252,1.431,1,1.536.169.981.653,1.326.467.806,1.243,1.878.875,1.355.431.47.536.4,1.552.885,1.157.123,1.545,1.341,1.841,1.015.7-.021.7-.345,2.214,1.021,1.131-.2.728-.26,1.863.065,1.332-.5,1.363-.04,1.606-.416,1.708.421,1.156-.46.451-1.265,2.05-.075,1.286-.953.714-.886,1.356-.977.945-.9,1.095-.87.483-1.23.245-2.3,1.108-.7,1.216-.423.059-1.947-.373-3.041,1.672-1.585.076-1.2-.266-.952.509-.75.119-.237.154-2.338.117-.122,2.878-.24,1.011-.74,2.661.876.942.357,2.674,2.377-1.094.332.042,1.5.891,1.412-.425.518.108,1.3-.554.188.079.412.294,3.16,1.54,1.12.423,1.545,1.3,1.641-.207.473.556,1.569,1.291,1.133.774.728.766.547,1.164,1.111,1.759.951.687.125,2.823,1.089,2,.947.8-.091.7-.441,1.677.124,1.373-.552,1.349.045,1.9.27,1.618-.038.878-.9,1.236-.132,1.471-.788.682-1.409,1.453-.332,1.784-1.365,1.92-1.131.751-.977.792-1.813.6-.947,1.3-.995.406-.937.564-1.217-.383-2.547.191-1.066.927-.88-.138-2.258.189-1.4,1.052-1.627.782-.621,1.707-.433,3.318,1.045,2.552,3.522.65,1.38-.092,2.251.973,1.211-1.251,1.032.531,2.121-.475,2.214-.187,1.232-1.414,1.5-.511.919-1.172,1.474-.122,2.244-2.366,1.04-.219,2.367-.929.97-1.9.737-1,.947-.973,1.387-.978,1.256-1.807.4-1.4.983-1.356.334-1.81.352-1.437.388-1.193,1.281-2.088-.778-1.4-.193-1.56.52-1.3.177-3.178.284-2.034-.633-1.281.7-1.858Z" transform="translate(-229.297 -314.866)"/><path class="c" d="M434.5,417.384l-2.381-2.644-3.926-.646-2.846.821-.952-.424-2.443-.741-1.758,1.027-.872.013-1.535-.426-1.856.168-1.032.347-1.373-1.29-2.418.51-.945.442-2.016-1.789-1.927,2.415-.373-.054-1.818-1.536-1.858,1.094-1.473-.513-1.483.705-.04-.312.165-1.458-.017-1.919-.416-1.1.621-1.619-.545-1.417.7-1.592-.75-1.506.389-.687.929-2.668-1.354-2.016-.266-.641,1.4-2.589-.109-2.07-.578-2-.372-.871.8-1.522-.9-1.956-.034-1,.245-1.087,1.134-2.014-.781-1.764.657-2.843-.5-1.58.351-1.55-.513-1.728L399.1,370.6l-.6-1.544.134-.653,1.925-1.74-.917-2.43-.095-.842.632-1.44-.215-3.434-.308-1.641-.062-1.322-.285-1.325.857-1.81-.983-1.516.268-.719.381-2.206-.435-1.524.168-1.718-.731-1.509.12-.638.459-1.2,1.208-2.108-.927-2.219-.168-.97.321-1.445-.293-2.129-.667-1.356-.013-.993.221-1.289.431-1.337.416-1.948-.46-3.156.169-1.236-.1-2.535L398,317.545l-1.221-2.427-2.8.973-1.187.317-2.117.265-1.454,2.451.109,1.872-.147,1.6.176.963-1.665,1.812,1.4,2.453.219,1.013.006,1-.877,2.142,1.23,1.623-.684,5.358-.625,2.1.588,1.241-1,2.052,1.495,1.254-.514.72.1,2.405.486,1.149-1.483,3.5,1.4,1.345-.371.631-.412,2.435.912,1.736.059.442-1.935,1.738,1.438,2.64.25.885.025,1.2-.455,1.729.508,1.674-.044,1.351.034,1.32-.227,1.231-.659,1.927.482,1.729-.037,1.378.047,1-1.14,1.986,1.205,1.894-.151,1.308.478,1.371-.684,2.512-.117,1.815-.281,2.062.958,1.43-.267,1.3.427,1.024-1.656,1.872,1.539,1.734-.665,1.261,1,1.82-.278,2.865.495,1.509-.026,1.149-.364,1.33-.547,3.716.661,1.32-.2.738-1.5,2.581,2.014,1.805.17,3.086,2.357.9,1.386.166,1.326.837,2.043.406,2.313-.089.987-.7,1.142.781,5.327-.9,1.564-.617,1.009.1,1.1.256,2.359,1.573,2.133-1.872.4-.084,1.567,1.383,2.307-.93,2.815-.234,1.159-.278,1.325.77,1.863-.109,1.113.426,2.687.38,2.413-1.573.183-1.289,1.429-.378.7-2.752Z" transform="translate(-209.86 -314.731)"/><path class="c" d="M466.091,404.434l.9-1.012-.141-.927,1.188-1.3-1.469-1.418-.043-.673.2-.347.011-1.849.419-2.048-.937-1.445.421-2.818-.439-1.692v-1.294l-.33-1.71-.038-.843,1.272-1.688-.661-2.083.015-1.338-.115-.97,1.371-1.79-1.309-2.247-.247-1.123-.27-5.724.605-1.379,0-1.394,1-1.76-.821-1.855.544-1.736-.951-1.2.9-1.254-.758-2.037-.15-1.621-.214-1.156.127-1.32.743-3.441-.881-1.6.151-1.307-.427-1.054.921-1.162.113-2.182-.2-1.536-.008-1.49-.317-1.4.516-1.364-.165-1.792.574-3.5-1.348-1.4.074-.4,1.511-1.915-1.069-2.158-.04-1.159-.35-1.6-.025-1.619-2.637-3.408-1.874.708-1.077-.477-4.122.414.582,2.9-1.085,1.369,1.041,1.984-.886,2.63.24,1.983.487,1.243-.687,1.24.256,2.083.414,1.49-.006,1.1-1.212,3.867,1.231,1.146-.6.86.251,1.638-.962,1.908,1.249,2,.068.523-.768,1.08-.937,3.069,1.425,1.22-.337.682-.048,2.07.235,1.1-1.113,1.8,1.221,1.978.048.7-.705,1.37-.056,2.834.388.342-.732,2.231,1.133,1.345-.251.605-.336,2.157.137,2.223.686.963-.917,1.36,1.095,1.777-.23.936-.251,1.787-.082,1.693.048,1.473.5,1.863.14.742-.59.891-.85,2.523.773,2.006.248.924-.286.953-.7,1.624-.205,2.865,1.093.909-.919,1.427,1.205,1.386-1.254,1.932.89.486-1.224,1.033-.317,2.346.035,1.5-.184.649-1.485.556-.686,1.422-1.721.58-.6,1.736-1.1.37-.889.725-1.91-.626-1.47,1.619-2.464-.156-1.488.033-1.1-.258-1.576-.815-1.322.011-1.282-1.166-1.693-.082-.49-.528-.551-.9-.362-3.222-2.26.215.038-.835-.921-.95.386-1.031-.1-2.323-.89-1.664-.4-.871.081-.269.3-.458.061-.75.172-.575-.117-.1.119-1.458-.964-.952.786-1.072-.546-2.18-.138-1.092.472-1.468-.205-1.881-.51-1.552.056-1.037.363-1.35.128-3.5-.1-1.212.689-1.746-.613-1.935-.1-1.6-.577-1.172.312-.715.434-2.224-.21-1.7-.317-1.123.59-1.044.6-3.158-1.2-.567.685-.86-.144-2.716-.643-.932.787-1.255-.557-1.674.6-1.2-.013-1.948-.241-1.693-.585-1.692-.186-1.138.119-1.1.583-1.55.049-1.887-.143-1.677-.276-1.4.043-1.269.2-1.238.715-1.831-.5-2.042-.771-1.558-.1-.922-.013-1.333.455-1.348.768-3.569-.538-1.649.01-.9,1.149-2.594L426,317.848l-.82-.411-1.227-2.413-2.877,1.228-1.7,1.272-1.044,1.813.053,1.161-1.4,1.608.738,2.1-.271,1.069-.291,2.218.64,1.379-.373,1.458.492,1.3-.546,1.046-.355,2.7,1.01,1.146-.773,1.557,1.5,1.822.03.516-.922,1.351.008,2.43.467,1.338-.163,1.024-.672,1.994.934,1.786,0,.807-.95,1.818.924,1.866-.035.95-.3,1.177-.9,1.785.314,1.892-.2,1.923.953,1.327-.319,1.172.306,1.547-.25,1.169-.036,2.236.585,1.384-.064.689-1.408,1.966.824,1.636-.656,1.305.436,1.9-.045,1.382.255,3.5.761,1.272-.064.7-1.189,1.762.676,1.764-.689,2.017,1.113,1.323-.358.891.01,1.506-.658,1.782.564,1.47-.626,1.361.527,1.859v.014l.022.081-.094,1.64-.759,1.248,1.337,2.394.607.874-.373,1.858,1.665,1.641.434.73-.184,2.5,2.229,1,.533.9,1.072,1.386,1.088,1.1.937,1.554,1.565.7.95,1.841,3.986.6,1.35.409,1.554.131,1.407.751,1.894.131,1.269,0,1.912.672,1.254-.626,1.757,1.332,2.1-1.462,3.249-.49,1.405-1.356,2.376-1.276,1.616-.539,1.051-.911,2.436-.332.781-2.226.9-1.016,1.218-1.618.288-1.685.788-1.233.151-1.351,1.205-1.05.52-1.914,2.453-1.026-1.8-2.321Z" transform="translate(-189.836 -314.795)"/><path class="c" d="M467.442,408.153l.041-.666.587-1.879-.449-1.141,1.794-2.124-1.957-1.521.641-1.087-.59-1.338,1-1.011.036-2.4-.161-1.5.067-1.493-.1-1.71-.263-2.024-.758-.853.564-.8.414-2.047-.082-1.729-.4-1.493.426-1.82-.84-1.34.455-1.207-.363-1.624,1.125-3.276-.9-1.9-.178-.929.118-.738,1.517-2.032-1.322-2.427-.408-1.216-.153-1,.968-2.969-.054-1.764-.436-1.988-.276-.842.919-1.7-.9-1.478.7-1.322-.6-1.841.205-1.3-.123-1.42.362-1.542-.268-2.843.838-1.987-1.261-1.792.01-.552,1.023-1.335.09-2.359-.544-2.745.493-1.925-1.006-1.445.52-2.944-.437-1.11,1.139-1.6-1.358-2.473-1.175-1.026-.926-.927-2.3-1.333-2.939.789-.62,1.56-1.733.791.127,2.458-.051,1.994.442.768L456.5,325l1.235,2.5.131.891-.623,1.749.889,1.955.215.783-.8,1.226-.16,2.15.365,2.04.595.929-.541.94-.237,2.131.286,1.5-.23,1.731.557,1.217-.656,1.236.464,3.61.132.529-.778.432.179,1.866.3,1.392-.437,1.335.122,1.876.331,1.609.191,1.392-.018,1.2-.368,1.5-.263,1.7.057,2.259.944,1.232-.15.63-1.148,1.766.534,1.664-.531,1.193-.071,2.246.459,1.256-.4,1.174.191,2.494.847,1.08-.411,1.062.281,1.858.033.893-1.31,1.767,1.171,2.21.056.556-1.568,2.094,1.6,1.79-.306,1.343.862,1.59-.026.97-.266,1.269-.653,1.721.194,1.661-.434,1.175-.487,1.79.311,1.951.446,1.578.138,1.233.462,1.636-.115,1.4.194.93-1.046,1.248-.146,2.313.309,2.1,1.369,1.947,1.664.98,3.326.977,1.2-2.257.539-.333,2.081-.9.084-2.313.8-2.113-1.179-1.445.4-.934.068-1.9-.031-.909,1.672-2.187Z" transform="translate(-162.922 -314.629)"/><g transform="translate(309.547 0)"><path class="c" d="M468.494,324.642l2.187,1.221,1.47-.028,1.284.368,2.363.08.9-.385,1.314,1.185,2.423-.515,1.379-.564,1.237.2,1.68.133,1.392-.115,1.8.447,1.535-.657,1.266.366,1.627-.176,1.251.27,2.249.112,1.514-.707.945.03,2.28.636,2.8-3.411.128-1.734.547-2.591-2.552-1.432-.792-.357-1.774-2.116-2.246,1.511-1.187-.318-1.6.345-1.623-.321-1.651.485-.753-.018-2.024-1.7-2.062,1.483-1.067-.163-2.859.184-1.723-.771-1.986.62-1.013.067-1.527-.431-1.713.074-1.945-.031-1.47.718-1.8.572-.957,1.682-1.817,2.685,2.242,1.661Z" transform="translate(-465.932 -314.888)"/><path class="c" d="M468.831,353.26l1.238,2.328,2.494-.691,2.55.209,1.4.383,2.144.256,1.435-.447,1.358.395,2.1-.119,1.5-.636.949.026,1.835.446,1.353-.422,1.349.656,1.909-.2,1.511.064,1.628-.117,1.394-.362,1.412.5,2.379-.377,1.37-1.42,1.208-2.024-.4-1.406.432-1.3-.633-2.785-2.272-.844-1.48-.311-2.042-.546-1.815.6-4.276.224-1.568-.179-1.29-.044-1.373-.408-2.119-.248-1.743.332-1.223.388-1.7-.585-1.4.786-1.1-.533-3.876-.153-1.59.942-.835-.02-2.99.345-.291,2.284-1.808,2.065,2.264,2.2Z" transform="translate(-465.913 -294.674)"/><path class="c" d="M500.49,373.892l-2.425.572-1.537-.135-1.353.306-1.452-.477-1.591.113-1.925-.436-1.228.681-1.161-.732-2.384.087-1.656.719-.771.143-1.6-.82-2.279.566-1.1.37-1.082-.238-2.039-.1-2.593.52-2.175-1.313-2.7,3.447-.95,2.451.972,1.71.592,2.223,2.233.325,1.484.814,1.707-.391,1.641.391,1.588-.434,2.946.523,1.731-.112,1.588-.541,1.116.276,1.419.232,1.822.424,2.18-.2,1.34-.8.73.133,1.864.776,2.06-.482,1.371-.468,1.013.089,2.517.651,1.174-2.127,1.318-1.082.105-1.923.388-2.154L501.859,376Z" transform="translate(-465.553 -274.683)"/></g></g><path class="c" d="M887.975,233.852l-.036-1.882-1.256-1.454-1.324-1.665-1.992.493-1.495.692-1.847-.656-1.157,1.268-.695,1.472-.975,1.238-1.719.325-1.329.933-.679,1.541-1.369.785-1.337.806-.473,1.721-2.3-.009-.716,1.532.149,2.151-2.058-.13-.879,1.4-.365,1.93-1.767.374-1.032,1-.75,1.431-1.891.087-1.656.577-.644,1.506-.514,1.636-1.816.491-.3,1.753-1.239.916-1.3.883-1.921.352.038,2.1-2.234-.166.31,2.313-1.32,1.059-1.434.723-.825,1.107-.758,1.479-1.694.458-1.556.561-.877,1.313-1.224.9-.637,1.561-1.09,1-.91,1.263-2.031.038-1.427.723-.416,1.783-1.425.638-.417,1.813-1.708.508L827.3,280.2l-1.678.233-1.768.531-.346,1.92-1.158.927-.832,1.262-1.278.966-.9.994-.55,1.692-2.05.052-.216,1.919-1.152,1.092-1.693.474-.512,1.759-1.712.371-1.071,1.026-.982.952-1.32,1.041-1.218.777-.252,2.081-1.435.538-1.473.639-1.025,1.21-1.84.263-.309,1.739-1.566.467-.977,1.259-.222,1.792-.8,1.366-1.99.248-.587,1.736-2.1-.34-.9,1.4-.491,1.66-.992,1.234-2.045-.054-.072,1.887-1.891.584-.7,1.347-1.509.5-1.151,1.048-1.031,1.126-1.188.99-.3,1.772-2.039.025-1.006,1.218-.6,1.608-1.769.3-1.237,1-.34,1.776-.68,1.488-1.751.324-1.486.47-1.255,1.147-.167,1.911-1.836.26-.933,1.4-.711,1.416-1.516-.414-1.612-.7-1.629.324-1.529.7-1.5-.5-1.558.374-1.546.344-1.481-1.257-1.69.445-1.478,1.643-1.421-1.437-1.465.6-1.576-.44-1.543.73-1.581-1.617-1.408,2.079L738,339.59l-1.485-1.73-1.4,1.676-1.595.213-1.648-.185-1.355-1.86-1.576.694-1.512-.285-1.588.09-1.482.382-1.49.212-1.488-1.253-1.512,1.785-1.569-.7-1.587.253-1.467-.061-1.412.6-1.64-.072-1.582.156-1.461-.481-1.469-.582-1.587.326-1.592,1.036-1.349-2.242-1.544,1.495-1.583-.136-1.545.837-1.47-1.382-1.6-.451-1.451.313-1.533.853-1.6-.9-1.447.927-1.495-.378-1.531-.144-1.5.848-1.47-1.115-1.567.176-1.518-.566-1.434,1.714-1.557-.1-1.614-.186-1.376-1.389-1.668-.157-1.453,1.458-1.532-.844-1.5.339-1.553.318-1.524-.017-1.5-1.032-1.552,1.482L660.5,338.3l-1.466,1.375L657.62,338.1l-1.546-.038-1.56.781-1.663-.419-1.445.242-1.542-.51-1.505.882-1.434-.656-1.541-.564-1.572.865-1.616-.317-1.3.23-1.649-.443-1.53.928-1.495.7-1.555-.329-1.452-.951-1.494.8-1.591.243-1.515-.91-1.468.94-1.505-1.277-1.453-.593-1.64.149-1.379,1.112-1.795-.573-1.279-.44-1.616.037-1.54.712-1.617-.725-1.392,1.632-1.547-1.4-1.466.259-1.462-.487-1.669,1.815-1.57-.582-1.4-.88-1.5,1.213-1.454-.495-1.539.77-1.634-.9-1.5-1.3-1.422,1.491-1.579.018-1.4-1.159-1.584,1.349-1.586-.1-1.422-1.651-1.593.642-1.438,1.058-1.517.493-1.667-.344-1.33-1.56-1.651.159-1.511.769-1.5-.2-1.487-.155-1.637-.814-1.365,1.842-1.6-.5-1.513-.514-1.518,1.017-1.5-1.469-1.465,1.6-1.475-1.277-1.581.268-1.653-.809-1.431,2.168-1.395-1.9-1.595.41-1.565,1.509-1.41-1.835-1.585-.041-1.469.431-1.583-.038-1.428.969-1.524-.331-1.466-.348-1.4-.833-1.685.691-1.637-.891-1.222,2.251L533,339.689l-1.4-1.046-1.505-.058-1.6-.189-1.475,1.25L525.6,338.22l-1.626.992-1.386-.337-1.585.5-1.533-.939-1.5-.239-1.51.988-1.417.476-1.563-.9-1.547-.349-1.569.1-1.425.405-1.585.483-1.535-1.525-1.51.2-1.543,1.152-1.474.277-1.467-.579-1.672-1.02-1.342.591-1.53.066-1.59.183-1.443,1.082-1.462-1.15-1.4-.665-1.645.544-1.512-.014-1.482.455-1.535.159-1.552-.575-1.513-.621-1.508.669-1.434-.44-1.525.42-1.5-.01-1.408-.09-1.558-.429-1.543.887-1.6.233-1.416-.878-1.266.794-1.745.018-1.459-1.1-1.621.29-1.563.437-1.361.234-1.689-.015-1.315-.041-1.6-.221-1.535.283-1.383.641-1.575-.921-1.646.091-1.43.009-1.5-.365-1.626-.046-1.374.239-1.577.325-1.379.312-1.627.228-1.513-1.017-1.536.031-1.342-.213-1.677.328-1.52.283-1.5-.721-1.535,1.3-1.513-.648-1.471-.848-1.453.885-1.5.9-1.615-.974-1.512.547-1.513.083-1.48-1.459-1.581.868-1.5-.3-1.522.13-1.535-.65-1.478.051-1.53-.085-1.589.214-1.441.483-1.489,1.142-1.608-.768-1.33.337-1.629-.123-1.693.165-1.4-1.8-1.422,1.951-1.51.017-1.622-.108-1.443-1.147-1.431.7-1.586-.83-1.446-.607-1.62.227-1.476,1.266-1.57.124-1.383-.326-1.585.765-1.589-.62-1.4-.505-1.55.613-1.464-1.254-1.558.923-1.641,1.056-1.335-1.862-1.7-.128-1.356.258-1.531.762-1.514-.61-1.547.284-1.6-.627-1.433.3-1.511-.163-1.508,1.477-1.538.113-1.662-.214-1.332-1.122-1.529.362-1.481-.934-1.617,1.617-1.452-.884-1.573-.494-1.414.032-1.536.625-1.493,1.288-1.668-.975-1.315.176L328.81,338l-1.356,1.338-1.621-1.059-1.343-.594-1.743.281-1.384,1.1-1.541.8-1.631-.7-1.453-.914-1.529.069-1.4.714-1.673-.426-1.652,1.125-1.3-1.546-1.525.572-1.41.416-1.576.143-1.552-.732-1.518.444-1.6.76-1.329-1.453-1.577.625-1.481.8-1.53-1.693-1.576.191-1.435.923-1.509-1.119-1.578,1.061-1.359.627-1.679-.349-1.518-.676-1.463-.094-1.535.778-1.5-1.244-1.484.7-1.576-.229-1.456,1.04-1.546.228-1.425-1.136-1.7.239-1.549-1.309-1.357,1.94-1.524-1.622-1.645.374-1.359.4-1.656,1.078-1.364-1.3-1.6-.985-1.445,1.078-1.555-.636-1.475,1.329-1.4-1.387-1.556.968-1.471.266-1.656.288-1.358-1.673-1.641.423-1.5.416-1.517-.173-1.4.692-1.681-.355-1.471.1-1.648.953-1.56-.741-1.241.062-1.468.234-1.7-1.049-1.589.252-1.264,1.2-1.738.675-.349,1.722-.391,1.585.544,1.572.419,1.618,1.994-.007.8,1.6,1.74-.191,1.442.512,1.512-.272,1.522.041,1.455.409,1.63-.654,1.28-.839,1.608,1.81,1.5.178,1.786.2,1.4-1.62,1.56.7,1.416.443,1.81-.855,1.32.4,1.427-.292,1.643-.08,1.52.638,1.52-.133,1.521.431,1.491.685L261,348.726l1.566.052,1.546.806.568-.541.325.634-2.022,1.432.641,1.6-.222,1.451-.582,1.542.787,1.553-.53,1.492.27,1.554.835,1.5-1.063,1.438,1.2,1.469-.756,1.673-.693,1.505,1.87,1.507-1.749,1.524,1.971,1.486-1.915,1.449-.037,1.448-.01,1.631,1.822,1.513-1.587,1.508.235,1.539.948,1.513-.363,1.6-.6,1.462.612,1.466-.558,1.431.575,1.6.11,1.472-.391,1.55.664,1.476-.381,1.559-.769,1.354-.836,1.536L264.236,401l.009,1.514.385,1.735-.829,1.482.1,1.406.394,1.611-.608,1.457.972,1.565-1.99,1.506.872,1.536-.5,1.37,1.148,1.538-.935,1.492,1.411,1.535-.429,1.458-.568,1.531.135,1.567-1.319,1.579.835,1.469,1.414,1.462-1.1,1.457-.251,1.452.739,1.691-1.272,1.489.6,1.373-.039,1.558.976,1.531-.991,1.482.018,1.5L263.281,445l-.06,1.372,1.443,1.617L264,449.551l-.143,1.323-.99,1.513.059,1.657,1.531,1.355-.747,1.543-.414,1.6.337,1.407-.087,1.439-.856,1.566,1.074,1.518-.878,1.423.756,1.588.225,1.462.6,1.561-1.175,1.355-.231,1.695.645,1.529.413,1.474.425,1.512-1.513,1.447L262.82,481l.9,1.537-.674,1.745,1.742,1.4-1.495,1.357-.321,1.552L264,490.172l-.09,1.386-.113,1.55-.46,1.563.068,1.452-.149,1.681,1.436,1.259,1.508.2,1.15,1.046,1.587.744-.182.079,1.622-.146,1.914-.477.55-1.481,1.389-1-.2-1.9.623-1.417-.922-1.627L273.1,491.6l1.045-1.58.219-1.7-1.81-1.422.7-1.528,1.11-1.427-.462-1.513-.788-1.617,1.031-1.4-.732-1.482.442-1.5,1.369-1.463-.651-1.747-1.18-1.252-.767-1.5.59-1.725,1.054-1.39-.956-1.668.452-1.426.38-1.515-.234-1.542.553-1.528-.893-1.447,1.2-1.438-.612-1.6-.3-1.6-1-1.478,1.621-1.379-1.3-1.559.866-1.481.776-1.335.147-1.937-.728-1.457-.957-1.367.854-1.614.043-1.258.6-1.432-1.513-1.776.562-1.508.686-1.54-1.145-1.434.77-1.482.043-1.573-1.281-1.525.941-1.5,1.026-1.75-1.171-1.308-.2-1.417,1.418-1.393-1.085-1.626-.308-1.481.481-1.505.124-1.559.353-1.562-1.371-1.309,1-1.68-.718-1.545.11-1.434.017-1.492-.525-1.356.624-1.69.566-1.355-.286-1.7-.307-1.414-.214-1.594.259-1.482.17-1.509.388-1.5.085-1.6-.848-1.481,1.08-1.341.3-1.7-.781-1.494-1.193-1.414.421-1.588,1.448-1.527-1.238-1.448.047-1.7.784-1.34-.394-1.459-.223-1.507-.4-1.435.224-1.585-.607-1.45.743-1.559,1.021-1.465-.367-1.561-.707-1.52-.409-1.481.052-1.545-.505-1.6,1.873-1.369-1.8-1.359.048-1.789.616-1.587,1.23-1.065.031-.011,1.369,1.126,1.723.469,1.478-1.559,1.543.33,1.41.862,1.685-.8,1.427.48,1.531-.672,1.593.23,1.387-.183,1.739.957,1.366-1.1,1.525.832L296,347.777l1.508,1.4,1.463-.263,1.557-.85,1.455,1.2,1.59.509,1.46-1.708,1.479,1.115,1.592.488,1.477-1.248,1.6-.642,1.326,1.983,1.6.058,1.5-.126,1.54-1.158,1.555.522,1.522.206,1.535-.247,1.493.206,1.5-.432,1.6.188,1.452.314,1.543-.857,1.511,1.274,1.622-.5,1.408-.508,1.569-.563,1.571.34,1.4.234,1.579.771,1.649.087,1.254-.273,1.7-.931,1.4.024,1.563-.294,1.422,1.789,1.614-1.388,1.5.655L353.528,348l1.552.306,1.594-.74,1.507.555,1.506.038,1.529.4,1.487-.02,1.531.1,1.663-.636,1.381,1.521,1.6-.17,1.432-.719,1.465-.5,1.577.164,1.416,1.242,1.675-1.11,1.537,1.582,1.563-.583,1.307-.193,1.555-1.211,1.42,1.4,1.609-.315,1.517-.137,1.5.518,1.512-1.148,1.649.15,1.4.824,1.573.405,1.462-1.085,1.461-.273,1.641.785,1.429-1.209,1.684.255,1.385.605,1.409-.317,1.545.913,1.553-.769,1.522-.1,1.52,1.014,1.6-.074,1.606-1.6L415.614,350l1.617-.9,1.512-.675,1.538.62,1.437-.485,1.732,1.193,1.437-.339,1.428-1.3,1.538.519,1.37,1.2,1.689.255,1.369-1.491,1.566-.09,1.5-.163,1.521.559,1.6-.533,1.5,1.427,1.5-.551L442.951,348l1.394,1.549,1.6-1.233,1.5.052,1.569,1.521,1.326-1.826,1.652.29,1.55.45,1.48-.029,1.493.621,1.5-1,1.551.9,1.489-1.067,1.541.19,1.373-.476,1.707-.243,1.45,1.069,1.507-.878,1.534,1.211,1.58-1.479,1.61.881,1.307.384,1.6.562,1.477.034,1.452-1.555,1.46.078,1.625.211,1.546.235,1.375-.3,1.6.415,1.5.42,1.416-.972,1.523,1.169,1.436.251,1.632.312,1.7-.016,1.325-1.284,1.432.623,1.579-.17,1.461-.783,1.511.1,1.564,1.107,1.478-.576,1.482.128,1.478.854,1.548-.594,1.553.619,1.46-1.243,1.529.315,1.479.93,1.631-.333,1.38-.861,1.495.139,1.478.356,1.544-.232,1.514.042,1.4-.234,1.592.091,1.538-.861,1.372,1.961,1.609-1,1.452,1.043,1.608,0L538,348.648l1.475.8,1.387-.993,1.646.351,1.459.332,1.584.531,1.444-.7,1.544.035,1.425-.753,1.406,1.163,1.715-.61,1.571.391,1.46.034,1.422-1.643,1.594,1,1.468.445,1.6.477,1.465-1.067,1.506.408,1.539,1.158,1.446-1.639,1.547.246,1.526-.31,1.517.575,1.5-.814,1.559.451,1.443,1,1.608.382,1.538.1,1.483-.133,1.4-.409,1.652.578,1.234-2.156,1.67-.334,1.591.638,1.393,1.065,1.547-.327,1.607.409,1.512-.917,1.442.23,1.558-.175,1.478.624,1.515-.307,1.452.537,1.566-1.047,1.575-.29,1.517,2.225,1.425-1.849,1.533-.317,1.571.132,1.513.373,1.421.766,1.5.025,1.513-.459,1.535.383,1.369-.861,1.565,1,1.58-.027,1.613.351,1.406-.587,1.53.081,1.613.271,1.393-1.032,1.509,1,1.412-.11,1.552.266,1.579-.629,1.636.126,1.393-.647,1.361.679,1.685-.019,1.5.073,1.6.165,1.437-.99,1.46-.431,1.548.744,1.518-.112,1.511.193,1.588-.753,1.445.85,1.5.548,1.4-1.137L661.9,348l1.45,1.647,1.661-1.724,1.442,1.49,1.53-.48,1.466.5,1.561.368,1.53-.892,1.413.338,1.434.624,1.668-.4,1.538-.5,1.452-.931,1.509.475,1.528.079,1.371.507,1.656-.242,1.49-.583,1.4,1.563,1.605-.68,1.513-.067,1.525-.427,1.393-.634,1.553.139,1.564,1.133,1.379.348,1.648,0,1.526-.737,1.624-1.412,1.594.819L707.3,349.7l1.419-.953,1.44,1.042,1.677-.353,1.376-.478,1.643-.547,1.418.74,1.482-.355,1.526-.4,1.511.912,1.471-1.73,1.458,2.132,1.591-.921,1.482.046,1.168.533.078.255.756,1.439-1.591,1.667,1.4,1.516-1.482,1.335.152,1.648-.258,1.583.19,1.542,1.5,1.483-.253,1.418-.968,1.469-.406,1.526-.052,1.7.866,1.429.539,1.52-.214,1.557-.663,1.506,1.363,1.371-1.037,1.609.108,1.51-.492,1.578-.169,1.377.721,1.619-.288,1.519,1.339,1.627-1.465,1.353.32,1.478-.7,1.534.938,1.534-.508,1.622,1.621,1.435-.484,1.686-1.023,1.291-1.313,1.685,2.183,1.283-.552,1.617.4,1.376-.571,1.6.482,1.494-.536,1.525-.609,1.443-.438,1.588.7,1.582.526,1.415-1.092,1.483,1.858,1.554-.434,1.5.2,1.375.291,1.615-.9,1.5-.847,1.45-.16,1.712,1.734,1.425-.93,1.437.924,1.4-.946,1.516.032,1.611,1.063,1.481-.342,1.575-1.05,1.485,1.359,1.6-2.048,1.341.794,1.594.638,1.539,0,1.451.162,1.645-1.015,1.352.168,1.595.074,1.5.362,1.445-.085,1.58-.193,1.465.071,1.648.24,1.349-.477,1.441-.439,1.6,1.137,1.5-.939,1.5.44,1.595.891,1.465-1.583,1.369.22,1.619-.359,1.615,1.979,1.257-.971,1.648-.019,1.51,1.436,1.492-.478,1.54-.832,1.472.814,1.674-1.123,1.384L729.018,487l-1.418,1.492.974,1.706-.855,1.44.617,1.445.618,1.638-.352,1.34.759,1.2-.873,2.031,1.028,1.565,2.229-.908.965,1.922.574-.135,1.427-.761,1.308-1,.835-.917.139-1.676,2.389-.988-.777-1.865-.5-1.511.194-1.467L736.9,489.93l1.909-1.362-1.779-1.328,1.378-1.805-1.138-1.589,1.556-1.36v-1.558L739,479.6l-.518-1.73-1.042-1.434,1.5-1.679-1.9-1.508.567-1.467-.595-1.347.45-1.648,1.029-1.538.212-1.39.244-1.666-1.365-1.453.826-1.535-.81-1.463.846-1.324-.538-1.86.616-1.408-.924-1.444.71-1.577.271-1.61-1.062-1.387.61-1.581-.4-1.351.559-1.6-.882-1.75,1-1.283-1.309-1.5.529-1.631.458-1.358.431-1.553-.593-1.561.82-1.438-.6-1.531-.358-1.423,1.109-1.659-.557-1.462-.42-1.467-.02-1.406-.835-1.621.869-1.507-.505-1.26.449-1.7-.044-1.5,1.306-1.437-.224-1.611-.03-1.4-1.444-1.7,1.3-1.388-.488-1.547-.467-1.5,1.3-1.345.042-1.639-1.613-1.5.846-1.635-1.186-1.462.941-1.512.276-1.456.452-1.587-1.511-1.281-.3-1.641.348-1.611,1.246-1.337.624-1.647-2.425-1.408.926-1.569-.333-1.447-.443-1.565.176-1.579.247-1.465,1.11-1.557-.369-1.457-1.27-1.541,1.011-1.4,1.2-1.517-1.249-1.547-.213-1.459-.523-1.528.677-1.567.9-1.489-.895-1.489.322-1.55L738,357.135l.048-1.522-.852-1.537,1.121-1.414-.216-1.57-.283-1.5.162-.195.786.146,1.664-.27,1.64.036,1.359-.784,1.587-.355,1.32-.259,1.686.972,1.353.116,1.49.546,1.657-.013,1.508.116,1.483-.495,1.448-.78,1.734,1.057,1.337-.412,1.543-.429,1.5-.5,1.524.915,1.4-1.46,1.173,1.653,1.389-1.017,1.12-.573.333-1.677,1.869-.427,1.259-1.018,1.1-1.022,1.353-.982.208-2.03,2.233.565.631-1.76.171-2,2.014-.2.969-1.2,1.158-1,1.239-.909.744-1.482.9-1.147,1.562-.667,1.509-.614.828-1.313,1.653-.43.633-1.615.328-1.875,1.876-.122,1.395-.783,1.252-1.118-.341-2.426,2.381.463,1.123-1.248-.166-2.311,2.637.692-.107-2.3,1.419-.879,1.507-.585.322-1.926,1.07-1.117,2.38.41.588-1.636.573-1.751,2.115.214.743-1.466,1.3-1.1.287-1.848,1.871-.049.395-1.7,1.182-1.05,1.673-.474.981-1.2,1.12-1.035,1.025-1,1.051-1.224,1.065-.963.957-1.255,2.04.023.417-1.861,1.112-1.023.506-1.6,1.855-.353,1.045-1.124.656-1.476,1.865-.064.392-2.071,1.6-.426.626-1.511,1.494-.61.333-2.007,1.32-.854,2.054.2.232-1.829.609-1.547,1.08-1.315,2.479.547-.255-2.5,1.419-.864,1.185-.776,2.076-.154.3-1.8,2.064.1.3-1.935.187-1.851h1.882l-.029,1.42-1,1.622.833,1.747.215,1.379.414,1.485-.883,1.541.215,1.5,1.239,1.49-.358,1.58-.3,1.528-.319,1.445-.283,1.639,1,1.463-.1,1.583-1.082,1.432.515,1.645-.113,1.462-.191,1.471.212,1.635.367,1.495-.617,1.577.753,1.527.9,1.6-.8,1.4-.366,1.576-.237,1.318-.245,1.544.213,1.672,1.359,1.566-1.559,1.433.756,1.526.745,1.538-.81,1.49.228,1.673-.094,1.381-.74,1.7.862,1.416.054,1.449.1,1.663-.762,1.38-.895,1.739.681,1.32.893,1.527-1.164,1.54,1.354,1.42.184,1.5-.576,1.567-.106,1.512.06,1.554.5,1.525v1.573l.217,1.495-.9,1.527.362,1.508-.786,1.4.982,1.576-.074,1.592-1.53,1.294,1.049,1.748-.337,1.518.808,1.378-.918,1.723-.183,1.476,1.073,1.51.241,1.542-1.343,1.632,1.037,1.37-.256,1.532.38,1.556.215,1.553-1.052,1.468,1.068,1.3v1.756l1.342.9,1.717.169,1.359.335.257.308,1.687-.232.8-1.272,1.9.25-.13-2.112.762-1.4.2-1.539-.087-1.545.058-1.6-.549-1.5-.025-1.53.46-1.53-1.067-1.532-.34-1.527,1.141-1.475.36-1.578-1.054-1.476,2.1-1.434-.219-1.686-1.4-1.4-.642-1.462,1.074-1.733-.734-1.608.666-1.472.287-1.5-.843-1.419-.428-1.738.456-1.573,1.1-1.34-.379-1.56.331-1.73-1.722-1.42.765-1.5.21-1.441.6-1.508-.585-1.546,1.207-1.443-1.021-1.574.46-1.557-.728-1.53-.256-1.438-1.048-1.6,1.34-1.518-.484-1.528,1.067-1.468.3-1.388-1-1.732-.727-1.321,1.3-1.748.087-1.349.28-1.655-.436-1.546-1-1.465.644-1.561,1.307-1.557-1.562-1.414-.034-1.562,1.47-1.489-1.24-1.5-.09-1.555.419-1.506-.085-1.5,1.174-1.393-.606-1.812-1.744-1.327.163-1.84,1.361-1.286-.067-1.67-1.2-1.357.92-1.476-.124-1.593-.789-1.305.447-1.723-.287-1.593.759-1.453.582-1.474-1.25-1.654,1.167-1.393-.516-1.558-.691-1.454.52-1.579-1.038-1.266.337-.085.929-1.484.223-1.881,1.193-1.007,1.13-1.035,1.411-.726.6-1.387.932-1.35,1.236-.89,1.394-.8,1.094-1.013,1.49-.644,1.18-1.063,1.146-.92.213-1.985,1.712-.337,1.252-.912.937-1.216,1.387-.748.254-1.763L888,235.552Z" transform="translate(0.006 16.812)"/></g></g></svg>